<svg version="1.1" viewBox="0.0 0.0 800.0 600.0" fill="none" stroke="none" stroke-linecap="square" stroke-miterlimit="10" xmlns:xlink="http://www.w3.org/1999/xlink" xmlns="http://www.w3.org/2000/svg"><clipPath id="p.0"><path d="m0 0l800.0 0l0 600.0l-800.0 0l0 -600.0z" clip-rule="nonzero"/></clipPath><g clip-path="url(#p.0)"><path fill="#000000" fill-opacity="0.0" d="m0 0l800.0 0l0 600.0l-800.0 0z" fill-rule="evenodd"/><path fill="#d5a6bd" d="m99.99475 394.76904l0 0c0 -38.651245 31.333023 -69.98425 69.98425 -69.98425l0 0c18.560974 0 36.36174 7.3733215 49.486343 20.497894c13.124588 13.124603 20.49791 30.925354 20.49791 49.48636l0 0c0 38.651215 -31.333023 69.98425 -69.98425 69.98425l0 0c-38.65123 0 -69.98425 -31.333038 -69.98425 -69.98425z" fill-rule="evenodd"/><path stroke="#000000" stroke-width="1.0" stroke-linejoin="round" stroke-linecap="butt" d="m99.99475 394.76904l0 0c0 -38.651245 31.333023 -69.98425 69.98425 -69.98425l0 0c18.560974 0 36.36174 7.3733215 49.486343 20.497894c13.124588 13.124603 20.49791 30.925354 20.49791 49.48636l0 0c0 38.651215 -31.333023 69.98425 -69.98425 69.98425l0 0c-38.65123 0 -69.98425 -31.333038 -69.98425 -69.98425z" fill-rule="evenodd"/><path fill="#000000" d="m138.00655 400.8634q-1.125 0 -2.171875 -0.375q-1.03125 -0.390625 -1.84375 -1.09375q-0.8125 -0.71875 -1.296875 -1.71875q-0.46875 -1.0 -0.46875 -2.21875q0 -1.171875 0.5 -2.15625q0.5 -0.984375 1.359375 -1.71875q0.859375 -0.75 1.96875 -1.15625q1.125 -0.40625 2.34375 -0.40625q0.625 0 1.0625 0.046875q0.4375 0.046875 0.84375 0.140625q0.40625 0.078125 0.953125 0.234375q0.234375 0.0625 0.328125 0.1875q0.109375 0.125 0.125 0.359375q0.03125 0.359375 0.078125 0.78125q0.0625 0.421875 0.078125 1.046875q0.015625 0.109375 -0.109375 0.1875q-0.125 0.078125 -0.265625 0.046875q-0.125 -0.03125 -0.171875 -0.21875q-0.171875 -0.609375 -0.375 -1.046875q-0.203125 -0.4375 -0.625 -0.71875q-0.390625 -0.28125 -0.96875 -0.40625q-0.5625 -0.140625 -1.21875 -0.140625q-0.921875 0 -1.71875 0.375q-0.796875 0.375 -1.375 1.03125q-0.5625 0.640625 -0.875 1.453125q-0.3125 0.8125 -0.3125 1.703125q0 0.96875 0.296875 1.921875q0.3125 0.9375 0.890625 1.703125q0.59375 0.75 1.40625 1.21875q0.8125 0.453125 1.796875 0.453125q1.15625 0 1.90625 -0.53125q0.75 -0.53125 1.28125 -1.46875q0.109375 -0.21875 0.328125 -0.21875q0.21875 0 0.21875 0.265625q0 0.125 -0.0625 0.40625q-0.0625 0.28125 -0.171875 0.59375q-0.109375 0.3125 -0.203125 0.546875q-0.109375 0.21875 -0.1875 0.296875q-0.0625 0.0625 -0.328125 0.140625q-0.59375 0.234375 -1.421875 0.34375q-0.8125 0.109375 -1.59375 0.109375zm8.594391 -0.015625q-0.90625 0 -1.625 -0.40625q-0.71875 -0.421875 -1.140625 -1.140625q-0.421875 -0.734375 -0.421875 -1.65625q0 -0.671875 0.265625 -1.3125q0.265625 -0.640625 0.734375 -1.171875q0.484375 -0.53125 1.125 -0.84375q0.640625 -0.3125 1.375 -0.3125q0.921875 0 1.671875 0.453125q0.75 0.4375 1.1875 1.171875q0.4375 0.734375 0.4375 1.59375q0 0.921875 -0.40625 1.765625q-0.40625 0.828125 -1.21875 1.34375q-0.796875 0.515625 -1.984375 0.515625zm0.328125 -0.46875q0.546875 0 0.96875 -0.203125q0.4375 -0.21875 0.6875 -0.6875q0.1875 -0.359375 0.25 -0.890625q0.0625 -0.53125 0.0625 -1.0q0 -0.765625 -0.28125 -1.46875q-0.28125 -0.71875 -0.78125 -1.171875q-0.5 -0.453125 -1.1875 -0.453125q-0.4375 0 -0.78125 0.140625q-0.34375 0.125 -0.625 0.5q-0.328125 0.390625 -0.421875 0.96875q-0.09375 0.578125 -0.09375 1.15625q0 0.78125 0.28125 1.5q0.296875 0.703125 0.78125 1.15625q0.5 0.453125 1.140625 0.453125zm4.5450134 0.296875q-0.140625 0 -0.234375 -0.046875q-0.078125 -0.03125 -0.078125 -0.125q0 -0.125 0.09375 -0.171875q0.09375 -0.046875 0.265625 -0.09375q0.234375 -0.0625 0.453125 -0.171875q0.234375 -0.109375 0.234375 -0.421875l0 -3.453125q0 -0.421875 -0.09375 -0.71875q-0.078125 -0.3125 -0.5 -0.421875q-0.0625 -0.03125 -0.109375 -0.078125q-0.046875 -0.046875 -0.046875 -0.140625q0 -0.171875 0.140625 -0.1875q0.5625 -0.140625 0.90625 -0.34375q0.359375 -0.21875 0.703125 -0.46875q0.046875 -0.03125 0.078125 -0.046875q0.046875 -0.03125 0.09375 -0.03125q0.03125 0 0.046875 0.03125q0.03125 0.03125 0.03125 0.078125q0 0.109375 -0.046875 0.453125q-0.03125 0.34375 -0.03125 0.5625q0 0.0625 0 0.125q0.015625 0.0625 0.03125 0.078125q0.5625 -0.53125 1.1875 -0.796875q0.640625 -0.28125 1.390625 -0.28125q0.78125 0 1.296875 0.640625q0.515625 0.640625 0.515625 1.578125l0 3.421875q0 0.3125 0.21875 0.421875q0.21875 0.09375 0.46875 0.171875q0.125 0.046875 0.234375 0.109375q0.125 0.0625 0.125 0.1875q0 0.09375 -0.109375 0.109375q-0.109375 0.03125 -0.203125 0.03125q-0.328125 0 -0.5 -0.03125q-0.171875 -0.015625 -0.34375 -0.03125q-0.15625 -0.015625 -0.4375 -0.015625q-0.28125 0 -0.453125 0.015625q-0.171875 0.015625 -0.359375 0.03125q-0.1875 0.03125 -0.5 0.03125q-0.078125 0 -0.203125 -0.03125q-0.125 -0.015625 -0.125 -0.109375q0 -0.125 0.125 -0.1875q0.125 -0.0625 0.25 -0.109375q0.234375 -0.078125 0.453125 -0.171875q0.234375 -0.109375 0.234375 -0.421875l0 -3.375q0 -0.703125 -0.390625 -1.09375q-0.390625 -0.390625 -1.046875 -0.40625q-0.578125 0 -1.015625 0.1875q-0.421875 0.1875 -0.765625 0.453125q-0.0625 0.0625 -0.09375 0.171875q-0.03125 0.109375 -0.03125 0.203125l0 3.859375q0 0.3125 0.21875 0.421875q0.234375 0.109375 0.46875 0.171875q0.359375 0.109375 0.359375 0.265625q0 0.09375 -0.078125 0.125q-0.078125 0.046875 -0.234375 0.046875q-0.328125 0 -0.515625 -0.03125q-0.171875 -0.015625 -0.34375 -0.03125q-0.15625 -0.015625 -0.4375 -0.015625q-0.265625 0 -0.4375 0.015625q-0.171875 0.015625 -0.359375 0.03125q-0.171875 0.03125 -0.5 0.03125zm10.776138 0.171875q-0.796875 0 -1.234375 -0.46875q-0.4375 -0.484375 -0.4375 -1.4375l0 -3.703125q0 -0.125 -0.09375 -0.171875q-0.09375 -0.0625 -0.421875 -0.0625l-0.09375 0q-0.078125 0 -0.140625 -0.109375q-0.046875 -0.109375 -0.046875 -0.21875q0 -0.03125 0.046875 -0.09375q0.046875 -0.0625 0.0625 -0.078125q0.3125 -0.234375 0.578125 -0.453125q0.265625 -0.21875 0.484375 -0.4375q0.21875 -0.21875 0.359375 -0.390625q0.078125 -0.078125 0.125 -0.125q0.0625 -0.0625 0.15625 -0.0625q0.078125 0 0.140625 0.03125q0.078125 0.03125 0.0625 0.140625l-0.078125 0.71875q-0.015625 0.171875 0.078125 0.234375q0.09375 0.0625 0.296875 0.0625l1.828125 0q0.0625 0 0.109375 0.109375q0.046875 0.109375 0.046875 0.25q0 0.140625 -0.046875 0.28125q-0.046875 0.140625 -0.109375 0.140625l-1.578125 0q-0.40625 0 -0.53125 0.0625q-0.109375 0.0625 -0.109375 0.375l0 3.15625q0 0.640625 0.265625 1.015625q0.28125 0.359375 0.78125 0.359375q0.46875 0 0.71875 -0.0625q0.265625 -0.078125 0.46875 -0.21875q0.03125 -0.03125 0.0625 -0.03125q0.0625 0 0.078125 0.078125q0.03125 0.0625 0.03125 0.140625q0 0.078125 -0.265625 0.328125q-0.25 0.234375 -0.6875 0.4375q-0.421875 0.203125 -0.90625 0.203125zm2.7740173 -0.171875q-0.15625 0 -0.234375 -0.046875q-0.078125 -0.03125 -0.078125 -0.125q0 -0.125 0.09375 -0.171875q0.09375 -0.046875 0.265625 -0.09375q0.3125 -0.078125 0.453125 -0.21875q0.15625 -0.15625 0.15625 -0.375l0 -3.453125q0 -0.421875 -0.125 -0.734375q-0.125 -0.328125 -0.53125 -0.40625q-0.0625 -0.015625 -0.109375 -0.078125q-0.046875 -0.078125 -0.046875 -0.140625q0 -0.15625 0.140625 -0.1875q0.421875 -0.125 0.875 -0.375q0.453125 -0.25 0.71875 -0.40625q0.09375 -0.0625 0.140625 -0.078125q0.0625 -0.03125 0.09375 -0.03125q0.078125 0 0.078125 0.109375q0 0.046875 -0.015625 0.234375q0 0.1875 -0.015625 0.453125q0 0.25 -0.015625 0.515625q0 0.03125 0.03125 0.03125q0.25 -0.328125 0.5625 -0.5625q0.3125 -0.25 0.640625 -0.390625q0.328125 -0.140625 0.640625 -0.140625q0.328125 0 0.546875 0.140625q0.21875 0.140625 0.21875 0.375q0 0.15625 -0.09375 0.359375q-0.078125 0.1875 -0.234375 0.328125q-0.140625 0.140625 -0.296875 0.140625q-0.09375 0 -0.21875 -0.03125q-0.109375 -0.046875 -0.234375 -0.109375q-0.125 -0.046875 -0.25 -0.09375q-0.125 -0.046875 -0.25 -0.046875q-0.390625 0 -0.75 0.265625q-0.359375 0.265625 -0.359375 1.078125l0 3.234375q0 0.203125 0.21875 0.34375q0.234375 0.125 0.625 0.25q0.171875 0.046875 0.265625 0.109375q0.109375 0.046875 0.109375 0.15625q0 0.171875 -0.328125 0.171875q-0.484375 0 -0.734375 -0.046875q-0.234375 -0.03125 -0.65625 -0.03125q-0.265625 0 -0.4375 0.015625q-0.171875 0.015625 -0.359375 0.03125q-0.171875 0.03125 -0.5 0.03125zm5.2658844 0q-0.140625 0 -0.234375 -0.046875q-0.078125 -0.03125 -0.078125 -0.125q0 -0.125 0.109375 -0.171875q0.125 -0.0625 0.25 -0.09375q0.34375 -0.078125 0.515625 -0.1875q0.171875 -0.125 0.171875 -0.40625l0 -3.484375q0 -0.421875 -0.15625 -0.75q-0.140625 -0.34375 -0.5625 -0.40625q-0.078125 -0.015625 -0.125 -0.0625q-0.03125 -0.0625 -0.03125 -0.15625q0 -0.171875 0.140625 -0.1875q0.640625 -0.140625 1.046875 -0.390625q0.421875 -0.25 0.640625 -0.40625q0.140625 -0.109375 0.21875 -0.109375q0.09375 0 0.09375 0.078125q0 0.125 -0.046875 0.5q-0.03125 0.375 -0.0625 0.828125q-0.03125 0.453125 -0.03125 0.828125l0 3.71875q0 0.265625 0.171875 0.390625q0.1875 0.125 0.515625 0.203125q0.125 0.03125 0.234375 0.09375q0.125 0.046875 0.125 0.171875q0 0.171875 -0.3125 0.171875q-0.3125 0 -0.5 -0.03125q-0.171875 -0.015625 -0.34375 -0.03125q-0.171875 -0.015625 -0.453125 -0.015625q-0.265625 0 -0.453125 0.015625q-0.171875 0.015625 -0.34375 0.03125q-0.171875 0.03125 -0.5 0.03125zm0.890625 -8.296875q-0.328125 0 -0.5625 -0.234375q-0.234375 -0.234375 -0.234375 -0.578125q0 -0.34375 0.234375 -0.578125q0.234375 -0.234375 0.5625 -0.234375q0.359375 0 0.59375 0.234375q0.234375 0.234375 0.234375 0.578125q0 0.34375 -0.234375 0.578125q-0.234375 0.234375 -0.59375 0.234375zm6.4668884 8.46875q-0.34375 0 -0.703125 -0.0625q-0.34375 -0.0625 -0.671875 -0.140625q-0.34375 -0.09375 -0.609375 -0.171875q-0.265625 -0.078125 -0.34375 -0.078125q-0.09375 0 -0.1875 0.0625q-0.09375 0.0625 -0.171875 0.140625q-0.078125 0.078125 -0.140625 0.078125q-0.0625 0 -0.140625 -0.046875q-0.078125 -0.0625 -0.078125 -0.140625q0 -0.140625 0.046875 -0.484375q0.0625 -0.359375 0.0625 -0.671875l0 -7.765625q0 -0.40625 -0.21875 -0.703125q-0.203125 -0.3125 -0.515625 -0.453125q-0.0625 -0.03125 -0.140625 -0.09375q-0.078125 -0.0625 -0.078125 -0.15625q0 -0.078125 0.0625 -0.109375q0.078125 -0.03125 0.140625 -0.046875q0.203125 -0.046875 0.5625 -0.171875q0.359375 -0.125 0.671875 -0.25q0.328125 -0.140625 0.4375 -0.1875q0.09375 -0.046875 0.140625 -0.046875q0.03125 0 0.0625 0.03125q0.046875 0.03125 0.046875 0.078125q0 0.0625 -0.03125 0.546875q-0.03125 0.46875 -0.03125 1.140625l0 3.28125q0 0.296875 0.03125 0.40625q0.046875 0.09375 0.125 0.109375q0.484375 -0.40625 1.140625 -0.671875q0.65625 -0.265625 1.1875 -0.265625q0.8125 0 1.453125 0.421875q0.65625 0.40625 1.046875 1.125q0.390625 0.703125 0.390625 1.609375q0 1.078125 -0.453125 1.921875q-0.453125 0.84375 -1.25 1.3125q-0.78125 0.453125 -1.84375 0.453125zm0.375 -0.484375q0.609375 0 1.046875 -0.375q0.4375 -0.390625 0.671875 -1.03125q0.25 -0.640625 0.25 -1.453125q0 -0.625 -0.234375 -1.28125q-0.234375 -0.65625 -0.71875 -1.09375q-0.484375 -0.453125 -1.265625 -0.453125q-0.640625 0 -1.125 0.21875q-0.46875 0.203125 -0.828125 0.515625l0 3.109375q0 0.5625 0.3125 0.984375q0.3125 0.40625 0.8125 0.640625q0.515625 0.21875 1.078125 0.21875zm9.583771 0.5625q-0.109375 0 -0.109375 -0.125q0 -0.15625 0.03125 -0.46875q0.046875 -0.3125 0.046875 -0.515625q0 -0.03125 0 -0.046875q0 -0.03125 0 -0.046875q-0.625 0.609375 -1.265625 0.875q-0.625 0.25 -1.375 0.25q-0.515625 0 -0.9375 -0.21875q-0.40625 -0.203125 -0.65625 -0.625q-0.234375 -0.4375 -0.234375 -1.0625l0 -3.234375q0 -0.359375 -0.15625 -0.5625q-0.15625 -0.21875 -0.53125 -0.359375q-0.078125 -0.03125 -0.140625 -0.078125q-0.0625 -0.046875 -0.0625 -0.171875q0 -0.140625 0.0625 -0.1875q0.078125 -0.0625 0.171875 -0.078125q0.546875 -0.03125 0.84375 -0.078125q0.296875 -0.0625 0.734375 -0.171875q0.0625 -0.015625 0.078125 -0.015625q0.03125 0 0.0625 0q0.171875 0 0.15625 0.21875q-0.046875 0.375 -0.078125 0.625q-0.015625 0.25 -0.015625 0.609375l0 3.125q0 0.390625 0.1875 0.71875q0.1875 0.3125 0.5 0.53125q0.3125 0.203125 0.65625 0.203125q0.40625 0 0.71875 -0.046875q0.3125 -0.046875 0.625 -0.265625q0.171875 -0.140625 0.4375 -0.421875q0.28125 -0.28125 0.28125 -0.78125l0 -2.9375q0 -0.328125 -0.203125 -0.5q-0.203125 -0.171875 -0.46875 -0.234375q-0.25 -0.0625 -0.40625 -0.0625q-0.140625 0 -0.234375 -0.046875q-0.09375 -0.0625 -0.09375 -0.21875q0 -0.140625 0.09375 -0.1875q0.109375 -0.0625 0.234375 -0.0625q0.5 -0.015625 0.828125 -0.03125q0.328125 -0.03125 0.59375 -0.078125q0.265625 -0.0625 0.546875 -0.140625q0.03125 -0.015625 0.078125 -0.015625q0.046875 -0.015625 0.078125 -0.015625q0.21875 0 0.21875 0.171875q0 0.015625 -0.015625 0.0625q0 0.03125 -0.015625 0.09375q-0.015625 0.046875 -0.046875 0.265625q-0.015625 0.21875 -0.046875 0.46875q-0.015625 0.234375 -0.015625 0.359375l0 3.703125q0 0.421875 0.078125 0.609375q0.09375 0.1875 0.203125 0.1875q0.125 0 0.375 -0.015625q0.25 -0.03125 0.359375 -0.03125q0.078125 0 0.15625 0.03125q0.078125 0.03125 0.078125 0.171875q0 0.125 -0.0625 0.171875q-0.0625 0.03125 -0.15625 0.046875q-0.625 0.09375 -1.078125 0.25q-0.4375 0.15625 -0.796875 0.296875q-0.046875 0.015625 -0.140625 0.046875q-0.09375 0.046875 -0.171875 0.046875zm5.603897 -0.078125q-0.796875 0 -1.234375 -0.46875q-0.4375 -0.484375 -0.4375 -1.4375l0 -3.703125q0 -0.125 -0.09375 -0.171875q-0.09375 -0.0625 -0.421875 -0.0625l-0.09375 0q-0.078125 0 -0.140625 -0.109375q-0.046875 -0.109375 -0.046875 -0.21875q0 -0.03125 0.046875 -0.09375q0.046875 -0.0625 0.0625 -0.078125q0.3125 -0.234375 0.578125 -0.453125q0.265625 -0.21875 0.484375 -0.4375q0.21875 -0.21875 0.359375 -0.390625q0.078125 -0.078125 0.125 -0.125q0.0625 -0.0625 0.15625 -0.0625q0.078125 0 0.140625 0.03125q0.078125 0.03125 0.0625 0.140625l-0.078125 0.71875q-0.015625 0.171875 0.078125 0.234375q0.09375 0.0625 0.296875 0.0625l1.828125 0q0.0625 0 0.109375 0.109375q0.046875 0.109375 0.046875 0.25q0 0.140625 -0.046875 0.28125q-0.046875 0.140625 -0.109375 0.140625l-1.578125 0q-0.40625 0 -0.53125 0.0625q-0.109375 0.0625 -0.109375 0.375l0 3.15625q0 0.640625 0.265625 1.015625q0.28125 0.359375 0.78125 0.359375q0.46875 0 0.71875 -0.0625q0.265625 -0.078125 0.46875 -0.21875q0.03125 -0.03125 0.0625 -0.03125q0.0625 0 0.078125 0.078125q0.03125 0.0625 0.03125 0.140625q0 0.078125 -0.265625 0.328125q-0.25 0.234375 -0.6875 0.4375q-0.421875 0.203125 -0.90625 0.203125zm5.7427673 0q-0.90625 0 -1.625 -0.40625q-0.71875 -0.421875 -1.140625 -1.140625q-0.421875 -0.734375 -0.421875 -1.65625q0 -0.671875 0.265625 -1.3125q0.265625 -0.640625 0.734375 -1.171875q0.484375 -0.53125 1.125 -0.84375q0.640625 -0.3125 1.375 -0.3125q0.921875 0 1.671875 0.453125q0.75 0.4375 1.1875 1.171875q0.4375 0.734375 0.4375 1.59375q0 0.921875 -0.40625 1.765625q-0.40625 0.828125 -1.21875 1.34375q-0.796875 0.515625 -1.984375 0.515625zm0.328125 -0.46875q0.546875 0 0.96875 -0.203125q0.4375 -0.21875 0.6875 -0.6875q0.1875 -0.359375 0.25 -0.890625q0.0625 -0.53125 0.0625 -1.0q0 -0.765625 -0.28125 -1.46875q-0.28125 -0.71875 -0.78125 -1.171875q-0.5 -0.453125 -1.1875 -0.453125q-0.4375 0 -0.78125 0.140625q-0.34375 0.125 -0.625 0.5q-0.328125 0.390625 -0.421875 0.96875q-0.09375 0.578125 -0.09375 1.15625q0 0.78125 0.28125 1.5q0.296875 0.703125 0.78125 1.15625q0.5 0.453125 1.140625 0.453125zm4.6231384 0.296875q-0.15625 0 -0.234375 -0.046875q-0.078125 -0.03125 -0.078125 -0.125q0 -0.125 0.09375 -0.171875q0.09375 -0.046875 0.265625 -0.09375q0.3125 -0.078125 0.453125 -0.21875q0.15625 -0.15625 0.15625 -0.375l0 -3.453125q0 -0.421875 -0.125 -0.734375q-0.125 -0.328125 -0.53125 -0.40625q-0.0625 -0.015625 -0.109375 -0.078125q-0.046875 -0.078125 -0.046875 -0.140625q0 -0.15625 0.140625 -0.1875q0.421875 -0.125 0.875 -0.375q0.453125 -0.25 0.71875 -0.40625q0.09375 -0.0625 0.140625 -0.078125q0.0625 -0.03125 0.09375 -0.03125q0.078125 0 0.078125 0.109375q0 0.046875 -0.015625 0.234375q0 0.1875 -0.015625 0.453125q0 0.25 -0.015625 0.515625q0 0.03125 0.03125 0.03125q0.25 -0.328125 0.5625 -0.5625q0.3125 -0.25 0.640625 -0.390625q0.328125 -0.140625 0.640625 -0.140625q0.328125 0 0.546875 0.140625q0.21875 0.140625 0.21875 0.375q0 0.15625 -0.09375 0.359375q-0.078125 0.1875 -0.234375 0.328125q-0.140625 0.140625 -0.296875 0.140625q-0.09375 0 -0.21875 -0.03125q-0.109375 -0.046875 -0.234375 -0.109375q-0.125 -0.046875 -0.25 -0.09375q-0.125 -0.046875 -0.25 -0.046875q-0.390625 0 -0.75 0.265625q-0.359375 0.265625 -0.359375 1.078125l0 3.234375q0 0.203125 0.21875 0.34375q0.234375 0.125 0.625 0.25q0.171875 0.046875 0.265625 0.109375q0.109375 0.046875 0.109375 0.15625q0 0.171875 -0.328125 0.171875q-0.484375 0 -0.734375 -0.046875q-0.234375 -0.03125 -0.65625 -0.03125q-0.265625 0 -0.4375 0.015625q-0.171875 0.015625 -0.359375 0.03125q-0.171875 0.03125 -0.5 0.03125z" fill-rule="nonzero"/><path fill="#5db1ba" d="m324.35434 129.2441l0 0c0 -38.651237 31.333008 -69.98425 69.98425 -69.98425l0 0c18.560974 0 36.361725 7.3733215 49.48633 20.497917c13.124603 13.124588 20.497925 30.925354 20.497925 49.486336l0 0c0 38.65123 -31.333038 69.98425 -69.98425 69.98425l0 0c-38.651245 0 -69.98425 -31.333023 -69.98425 -69.98425z" fill-rule="evenodd"/><path stroke="#000000" stroke-width="1.0" stroke-linejoin="round" stroke-linecap="butt" d="m324.35434 129.2441l0 0c0 -38.651237 31.333008 -69.98425 69.98425 -69.98425l0 0c18.560974 0 36.361725 7.3733215 49.48633 20.497917c13.124603 13.124588 20.497925 30.925354 20.497925 49.486336l0 0c0 38.65123 -31.333038 69.98425 -69.98425 69.98425l0 0c-38.651245 0 -69.98425 -31.333023 -69.98425 -69.98425z" fill-rule="evenodd"/><path fill="#000000" d="m383.08405 135.21347q-0.15625 0 -0.71875 -0.03125q-0.546875 -0.03125 -1.265625 -0.0625q-0.703125 -0.015625 -1.34375 -0.015625q-0.328125 0 -0.546875 0.015625q-0.203125 0.015625 -0.453125 0.03125q-0.25 0.03125 -0.6875 0.03125q-0.203125 0 -0.328125 -0.046875q-0.125 -0.046875 -0.125 -0.15625q0 -0.125 0.125 -0.171875q0.125 -0.046875 0.390625 -0.09375q0.609375 -0.109375 0.84375 -0.359375q0.234375 -0.265625 0.234375 -0.828125l0 -7.203125q0 -0.578125 -0.234375 -0.8125q-0.234375 -0.25 -0.84375 -0.359375q-0.265625 -0.046875 -0.390625 -0.09375q-0.125 -0.0625 -0.125 -0.1875q0 -0.125 0.125 -0.171875q0.125 -0.046875 0.328125 -0.046875q0.421875 0 0.671875 0.015625q0.25 0 0.484375 0.015625q0.234375 0 0.625 0q0.25 0 0.640625 -0.015625q0.40625 -0.015625 0.828125 -0.046875q0.421875 -0.03125 0.765625 -0.046875q0.34375 -0.015625 0.5 -0.015625q1.640625 0 2.78125 0.390625q1.15625 0.390625 1.875 1.09375q0.71875 0.6875 1.0625 1.609375q0.34375 0.921875 0.34375 1.984375q0 1.15625 -0.4375 2.171875q-0.421875 1.0 -1.1875 1.78125q-0.765625 0.765625 -1.78125 1.203125q-1.0 0.421875 -2.15625 0.421875zm-0.1875 -0.5625q1.234375 0 2.1875 -0.59375q0.96875 -0.609375 1.5 -1.6875q0.546875 -1.078125 0.546875 -2.46875q0 -1.15625 -0.390625 -2.046875q-0.375 -0.90625 -1.015625 -1.515625q-0.640625 -0.625 -1.4375 -0.953125q-0.796875 -0.328125 -1.625 -0.328125q-0.6875 0 -1.171875 0.046875q-0.484375 0.03125 -0.75 0.25q-0.25 0.203125 -0.25 0.671875l0 7.140625q0 0.640625 0.34375 0.96875q0.359375 0.3125 0.90625 0.421875q0.5625 0.09375 1.15625 0.09375zm6.271515 0.53125q-0.21875 0 -0.34375 -0.0625q-0.125 -0.046875 -0.125 -0.140625q0 -0.109375 0.125 -0.203125q0.140625 -0.09375 0.40625 -0.171875q0.40625 -0.125 0.75 -0.375q0.359375 -0.265625 0.625 -0.859375q0.4375 -1.015625 0.8125 -1.90625q0.390625 -0.90625 0.71875 -1.765625q0.34375 -0.859375 0.703125 -1.796875q0.359375 -0.9375 0.75 -2.046875q0.078125 -0.21875 0.140625 -0.4375q0.078125 -0.234375 0.09375 -0.484375q0.140625 -0.046875 0.28125 -0.09375q0.140625 -0.046875 0.28125 -0.15625q0.15625 -0.09375 0.203125 -0.28125q0.0625 -0.1875 0.109375 -0.25q0.015625 -0.015625 0.03125 -0.015625q0.03125 0 0.046875 0.03125q0.03125 0.0625 0.046875 0.15625q0.03125 0.09375 0.0625 0.1875q0.390625 1.21875 0.796875 2.484375q0.421875 1.265625 0.8125 2.4375q0.390625 1.171875 0.71875 2.109375q0.328125 0.9375 0.53125 1.515625q0.21875 0.640625 0.46875 0.96875q0.265625 0.3125 0.53125 0.4375q0.28125 0.125 0.609375 0.1875q0.265625 0.046875 0.390625 0.15625q0.140625 0.109375 0.140625 0.21875q0 0.09375 -0.140625 0.125q-0.125 0.03125 -0.328125 0.03125q-0.21875 0 -0.609375 -0.03125q-0.375 -0.015625 -0.8125 -0.046875q-0.4375 -0.015625 -0.796875 -0.015625q-0.3125 0 -0.640625 0q-0.3125 0 -0.59375 0.015625q-0.265625 0 -0.453125 0q-0.203125 0 -0.34375 -0.046875q-0.125 -0.046875 -0.125 -0.140625q0 -0.109375 0.15625 -0.1875q0.171875 -0.09375 0.375 -0.125q0.53125 -0.078125 0.75 -0.265625q0.234375 -0.1875 0.234375 -0.453125q0 -0.234375 -0.109375 -0.6875q-0.109375 -0.46875 -0.25 -0.984375q-0.140625 -0.515625 -0.265625 -0.921875q-0.03125 -0.125 -0.125 -0.140625q-0.09375 -0.03125 -0.3125 -0.03125l-3.015625 0q-0.0625 0 -0.140625 0.0625q-0.078125 0.046875 -0.140625 0.21875q-0.046875 0.171875 -0.15625 0.515625q-0.109375 0.34375 -0.234375 0.734375q-0.109375 0.375 -0.1875 0.6875q-0.078125 0.296875 -0.078125 0.375q0 0.34375 0.265625 0.578125q0.28125 0.234375 0.671875 0.328125q0.515625 0.140625 0.515625 0.328125q0 0.09375 -0.125 0.140625q-0.125 0.03125 -0.328125 0.03125q-0.21875 0 -0.625 -0.015625q-0.390625 -0.015625 -0.828125 -0.015625q-0.53125 0 -1.03125 0.046875q-0.5 0.046875 -0.890625 0.046875zm3.734375 -4.59375l2.484375 0q0.21875 0 0.21875 -0.078125q0 -0.03125 -0.015625 -0.0625q0 -0.046875 -0.015625 -0.09375l-1.25 -3.90625q-0.09375 -0.28125 -0.140625 -0.28125q-0.03125 0 -0.125 0.265625l-1.453125 3.921875q-0.03125 0.09375 -0.03125 0.125q0 0.078125 0.078125 0.09375q0.09375 0.015625 0.25 0.015625zm12.451416 4.734375q-1.0625 0 -2.015625 -0.375q-0.953125 -0.375 -1.703125 -1.0625q-0.734375 -0.703125 -1.171875 -1.671875q-0.421875 -0.96875 -0.421875 -2.15625q0 -1.078125 0.34375 -2.078125q0.359375 -1.0 1.046875 -1.78125q0.6875 -0.796875 1.703125 -1.25q1.03125 -0.46875 2.359375 -0.46875q1.0625 0 2.015625 0.375q0.96875 0.375 1.703125 1.078125q0.734375 0.6875 1.15625 1.65625q0.4375 0.96875 0.4375 2.15625q0 1.078125 -0.359375 2.09375q-0.34375 1.0 -1.03125 1.78125q-0.6875 0.78125 -1.71875 1.25q-1.015625 0.453125 -2.34375 0.453125zm0.234375 -0.640625q1.234375 0 2.046875 -0.515625q0.828125 -0.515625 1.234375 -1.453125q0.40625 -0.9375 0.40625 -2.1875q0 -1.109375 -0.265625 -2.078125q-0.25 -0.96875 -0.75 -1.71875q-0.5 -0.75 -1.265625 -1.15625q-0.75 -0.421875 -1.75 -0.421875q-1.203125 0 -2.015625 0.515625q-0.8125 0.515625 -1.234375 1.4375q-0.421875 0.90625 -0.421875 2.15625q0 1.125 0.25 2.109375q0.25 0.96875 0.75 1.71875q0.515625 0.75 1.265625 1.171875q0.75 0.421875 1.75 0.421875z" fill-rule="nonzero"/><path fill="#ffe599" d="m560.03674 394.76904l0 0c0 -38.651245 31.333008 -69.98425 69.98425 -69.98425l0 0c18.560974 0 36.361755 7.3733215 49.48633 20.497894c13.124634 13.124603 20.497925 30.925354 20.497925 49.48636l0 0c0 38.651215 -31.333008 69.98425 -69.98425 69.98425l0 0c-38.651245 0 -69.98425 -31.333038 -69.98425 -69.98425z" fill-rule="evenodd"/><path stroke="#000000" stroke-width="1.0" stroke-linejoin="round" stroke-linecap="butt" d="m560.03674 394.76904l0 0c0 -38.651245 31.333008 -69.98425 69.98425 -69.98425l0 0c18.560974 0 36.361755 7.3733215 49.48633 20.497894c13.124634 13.124603 20.497925 30.925354 20.497925 49.48636l0 0c0 38.651215 -31.333008 69.98425 -69.98425 69.98425l0 0c-38.651245 0 -69.98425 -31.333038 -69.98425 -69.98425z" fill-rule="evenodd"/><path fill="#000000" d="m605.78467 400.70715q-0.203125 0 -0.328125 -0.046875q-0.125 -0.03125 -0.125 -0.125q0 -0.1875 0.515625 -0.296875q0.609375 -0.109375 0.890625 -0.359375q0.28125 -0.265625 0.28125 -0.84375l0 -6.765625q0 -0.71875 -0.1875 -1.09375q-0.171875 -0.390625 -0.78125 -0.5q-0.28125 -0.046875 -0.40625 -0.125q-0.125 -0.078125 -0.125 -0.1875q0 -0.109375 0.125 -0.140625q0.125 -0.046875 0.34375 -0.046875q0.421875 0 0.640625 0q0.21875 0 0.40625 0.015625q0.1875 0 0.515625 0q0.3125 0 0.640625 -0.015625q0.328125 -0.03125 0.609375 -0.046875q0.296875 -0.03125 0.53125 -0.03125q1.8125 0 2.921875 0.75q1.125 0.75 1.125 2.09375q0 0.984375 -0.390625 1.8125q-0.390625 0.8125 -1.1875 1.3125q-0.78125 0.5 -2.015625 0.5q-0.34375 0 -0.53125 -0.09375q-0.1875 -0.109375 -0.1875 -0.21875q0 -0.0625 0.078125 -0.140625q0.09375 -0.078125 0.1875 -0.078125q0.078125 0 0.234375 0.015625q0.171875 0.015625 0.5 0.015625q0.953125 0 1.4375 -0.796875q0.5 -0.796875 0.5 -2.203125q0 -1.28125 -0.765625 -1.890625q-0.75 -0.625 -1.90625 -0.625q-0.453125 0 -0.75 0.15625q-0.28125 0.140625 -0.28125 0.515625l0 7.625q0 0.578125 0.234375 0.9375q0.25 0.34375 0.84375 0.453125q0.265625 0.046875 0.390625 0.125q0.125 0.0625 0.125 0.171875q0 0.09375 -0.125 0.125q-0.125 0.046875 -0.328125 0.046875q-0.4375 0 -0.671875 -0.03125q-0.234375 -0.03125 -0.421875 -0.046875q-0.171875 -0.03125 -0.484375 -0.03125q-0.390625 0 -0.703125 0.03125q-0.3125 0.015625 -0.625 0.046875q-0.3125 0.03125 -0.75 0.03125zm8.769531 -0.03125q-0.15625 0 -0.234375 -0.046875q-0.078125 -0.03125 -0.078125 -0.125q0 -0.125 0.09375 -0.171875q0.09375 -0.046875 0.265625 -0.09375q0.3125 -0.078125 0.453125 -0.21875q0.15625 -0.15625 0.15625 -0.375l0 -3.453125q0 -0.421875 -0.125 -0.734375q-0.125 -0.328125 -0.53125 -0.40625q-0.0625 -0.015625 -0.109375 -0.078125q-0.046875 -0.078125 -0.046875 -0.140625q0 -0.15625 0.140625 -0.1875q0.421875 -0.125 0.875 -0.375q0.453125 -0.25 0.71875 -0.40625q0.09375 -0.0625 0.140625 -0.078125q0.0625 -0.03125 0.09375 -0.03125q0.078125 0 0.078125 0.109375q0 0.046875 -0.015625 0.234375q0 0.1875 -0.015625 0.453125q0 0.25 -0.015625 0.515625q0 0.03125 0.03125 0.03125q0.25 -0.328125 0.5625 -0.5625q0.3125 -0.25 0.640625 -0.390625q0.328125 -0.140625 0.640625 -0.140625q0.328125 0 0.546875 0.140625q0.21875 0.140625 0.21875 0.375q0 0.15625 -0.09375 0.359375q-0.078125 0.1875 -0.234375 0.328125q-0.140625 0.140625 -0.296875 0.140625q-0.09375 0 -0.21875 -0.03125q-0.109375 -0.046875 -0.234375 -0.109375q-0.125 -0.046875 -0.25 -0.09375q-0.125 -0.046875 -0.25 -0.046875q-0.390625 0 -0.75 0.265625q-0.359375 0.265625 -0.359375 1.078125l0 3.234375q0 0.203125 0.21875 0.34375q0.234375 0.125 0.625 0.25q0.171875 0.046875 0.265625 0.109375q0.109375 0.046875 0.109375 0.15625q0 0.171875 -0.328125 0.171875q-0.484375 0 -0.734375 -0.046875q-0.234375 -0.03125 -0.65625 -0.03125q-0.265625 0 -0.4375 0.015625q-0.171875 0.015625 -0.359375 0.03125q-0.171875 0.03125 -0.5 0.03125zm8.312744 0.171875q-0.90625 0 -1.625 -0.40625q-0.71875 -0.421875 -1.140625 -1.140625q-0.421875 -0.734375 -0.421875 -1.65625q0 -0.671875 0.265625 -1.3125q0.265625 -0.640625 0.734375 -1.171875q0.484375 -0.53125 1.125 -0.84375q0.640625 -0.3125 1.375 -0.3125q0.921875 0 1.671875 0.453125q0.75 0.4375 1.1875 1.171875q0.4375 0.734375 0.4375 1.59375q0 0.921875 -0.40625 1.765625q-0.40625 0.828125 -1.21875 1.34375q-0.796875 0.515625 -1.984375 0.515625zm0.328125 -0.46875q0.546875 0 0.96875 -0.203125q0.4375 -0.21875 0.6875 -0.6875q0.1875 -0.359375 0.25 -0.890625q0.0625 -0.53125 0.0625 -1.0q0 -0.765625 -0.28125 -1.46875q-0.28125 -0.71875 -0.78125 -1.171875q-0.5 -0.453125 -1.1875 -0.453125q-0.4375 0 -0.78125 0.140625q-0.34375 0.125 -0.625 0.5q-0.328125 0.390625 -0.421875 0.96875q-0.09375 0.578125 -0.09375 1.15625q0 0.78125 0.28125 1.5q0.296875 0.703125 0.78125 1.15625q0.5 0.453125 1.140625 0.453125zm9.560669 0.546875q-0.03125 0 -0.109375 -0.0625q-0.078125 -0.0625 -0.078125 -0.09375q0 -0.15625 0.03125 -0.453125q0.046875 -0.296875 0.046875 -0.5l0 -0.09375q-0.234375 0.359375 -0.765625 0.75q-0.53125 0.375 -1.328125 0.375q-0.90625 0 -1.578125 -0.46875q-0.65625 -0.484375 -1.015625 -1.234375q-0.359375 -0.75 -0.359375 -1.5625q0 -0.921875 0.421875 -1.734375q0.4375 -0.8125 1.25 -1.328125q0.8125 -0.515625 1.921875 -0.515625q0.328125 0 0.65625 0.0625q0.328125 0.046875 0.5 0.109375q0.140625 0.046875 0.203125 0.046875q0.109375 0 0.109375 -0.375l0 -2.28125q0 -0.65625 -0.203125 -0.875q-0.203125 -0.21875 -0.59375 -0.28125q-0.140625 -0.03125 -0.140625 -0.21875q0 -0.140625 0.125 -0.1875q0.703125 -0.171875 1.09375 -0.328125q0.40625 -0.171875 0.640625 -0.265625q0.0625 -0.03125 0.109375 -0.03125q0.0625 -0.015625 0.09375 -0.015625q0.09375 0 0.109375 0.09375q0 0.09375 -0.03125 0.328125q-0.015625 0.234375 -0.046875 0.6875q-0.03125 0.4375 -0.03125 1.171875l0 7.21875q0 0.546875 0.078125 0.796875q0.078125 0.25 0.265625 0.25q0.078125 0 0.265625 -0.015625q0.203125 -0.015625 0.421875 -0.03125q0.28125 -0.015625 0.28125 0.140625q0 0.109375 -0.078125 0.203125q-0.0625 0.078125 -0.140625 0.078125q-0.453125 0.078125 -0.890625 0.203125q-0.421875 0.109375 -0.984375 0.34375q-0.125 0.0625 -0.171875 0.078125q-0.03125 0.015625 -0.078125 0.015625zm-1.625 -0.90625q0.421875 0 0.8125 -0.21875q0.40625 -0.21875 0.703125 -0.5625l0.015625 -2.875q0 -0.4375 -0.25 -0.84375q-0.234375 -0.421875 -0.6875 -0.6875q-0.4375 -0.265625 -1.03125 -0.265625q-0.359375 0 -0.828125 0.234375q-0.453125 0.21875 -0.796875 0.78125q-0.328125 0.5625 -0.328125 1.640625q0 0.90625 0.265625 1.46875q0.265625 0.546875 0.65625 0.84375q0.40625 0.28125 0.8125 0.390625q0.40625 0.09375 0.65625 0.09375zm9.861633 0.90625q-0.109375 0 -0.109375 -0.125q0 -0.15625 0.03125 -0.46875q0.046875 -0.3125 0.046875 -0.515625q0 -0.03125 0 -0.046875q0 -0.03125 0 -0.046875q-0.625 0.609375 -1.265625 0.875q-0.625 0.25 -1.375 0.25q-0.515625 0 -0.9375 -0.21875q-0.40625 -0.203125 -0.65625 -0.625q-0.234375 -0.4375 -0.234375 -1.0625l0 -3.234375q0 -0.359375 -0.15625 -0.5625q-0.15625 -0.21875 -0.53125 -0.359375q-0.078125 -0.03125 -0.140625 -0.078125q-0.0625 -0.046875 -0.0625 -0.171875q0 -0.140625 0.0625 -0.1875q0.078125 -0.0625 0.171875 -0.078125q0.546875 -0.03125 0.84375 -0.078125q0.296875 -0.0625 0.734375 -0.171875q0.0625 -0.015625 0.078125 -0.015625q0.03125 0 0.0625 0q0.171875 0 0.15625 0.21875q-0.046875 0.375 -0.078125 0.625q-0.015625 0.25 -0.015625 0.609375l0 3.125q0 0.390625 0.1875 0.71875q0.1875 0.3125 0.5 0.53125q0.3125 0.203125 0.65625 0.203125q0.40625 0 0.71875 -0.046875q0.3125 -0.046875 0.625 -0.265625q0.171875 -0.140625 0.4375 -0.421875q0.28125 -0.28125 0.28125 -0.78125l0 -2.9375q0 -0.328125 -0.203125 -0.5q-0.203125 -0.171875 -0.46875 -0.234375q-0.25 -0.0625 -0.40625 -0.0625q-0.140625 0 -0.234375 -0.046875q-0.09375 -0.0625 -0.09375 -0.21875q0 -0.140625 0.09375 -0.1875q0.109375 -0.0625 0.234375 -0.0625q0.5 -0.015625 0.828125 -0.03125q0.328125 -0.03125 0.59375 -0.078125q0.265625 -0.0625 0.546875 -0.140625q0.03125 -0.015625 0.078125 -0.015625q0.046875 -0.015625 0.078125 -0.015625q0.21875 0 0.21875 0.171875q0 0.015625 -0.015625 0.0625q0 0.03125 -0.015625 0.09375q-0.015625 0.046875 -0.046875 0.265625q-0.015625 0.21875 -0.046875 0.46875q-0.015625 0.234375 -0.015625 0.359375l0 3.703125q0 0.421875 0.078125 0.609375q0.09375 0.1875 0.203125 0.1875q0.125 0 0.375 -0.015625q0.25 -0.03125 0.359375 -0.03125q0.078125 0 0.15625 0.03125q0.078125 0.03125 0.078125 0.171875q0 0.125 -0.0625 0.171875q-0.0625 0.03125 -0.15625 0.046875q-0.625 0.09375 -1.078125 0.25q-0.4375 0.15625 -0.796875 0.296875q-0.046875 0.015625 -0.140625 0.046875q-0.09375 0.046875 -0.171875 0.046875zm5.978882 -0.0625q-0.796875 0 -1.453125 -0.40625q-0.640625 -0.40625 -1.015625 -1.109375q-0.375 -0.71875 -0.375 -1.59375q0 -1.046875 0.453125 -1.890625q0.453125 -0.84375 1.21875 -1.34375q0.78125 -0.515625 1.703125 -0.515625q1.03125 0 1.828125 0.5625q0.1875 0.140625 0.1875 0.296875q0 0.140625 -0.109375 0.296875q-0.109375 0.15625 -0.28125 0.265625q-0.15625 0.09375 -0.296875 0.09375q-0.078125 0 -0.15625 -0.046875q-0.078125 -0.0625 -0.1875 -0.125q-0.34375 -0.265625 -0.78125 -0.5q-0.421875 -0.25 -0.71875 -0.25q-0.78125 0 -1.28125 0.734375q-0.484375 0.71875 -0.484375 1.90625q0 0.75 0.328125 1.359375q0.328125 0.609375 0.875 0.96875q0.5625 0.34375 1.234375 0.34375q0.46875 0 0.796875 -0.15625q0.34375 -0.15625 0.71875 -0.53125q0.03125 -0.03125 0.078125 -0.046875q0.0625 -0.03125 0.09375 -0.03125q0.171875 0 0.171875 0.21875q0 0.09375 -0.0625 0.21875q-0.046875 0.125 -0.171875 0.28125q-0.265625 0.3125 -0.625 0.546875q-0.34375 0.234375 -0.765625 0.34375q-0.421875 0.109375 -0.921875 0.109375zm6.137024 -0.015625q-0.796875 0 -1.234375 -0.46875q-0.4375 -0.484375 -0.4375 -1.4375l0 -3.703125q0 -0.125 -0.09375 -0.171875q-0.09375 -0.0625 -0.421875 -0.0625l-0.09375 0q-0.078125 0 -0.140625 -0.109375q-0.046875 -0.109375 -0.046875 -0.21875q0 -0.03125 0.046875 -0.09375q0.046875 -0.0625 0.0625 -0.078125q0.3125 -0.234375 0.578125 -0.453125q0.265625 -0.21875 0.484375 -0.4375q0.21875 -0.21875 0.359375 -0.390625q0.078125 -0.078125 0.125 -0.125q0.0625 -0.0625 0.15625 -0.0625q0.078125 0 0.140625 0.03125q0.078125 0.03125 0.0625 0.140625l-0.078125 0.71875q-0.015625 0.171875 0.078125 0.234375q0.09375 0.0625 0.296875 0.0625l1.828125 0q0.0625 0 0.109375 0.109375q0.046875 0.109375 0.046875 0.25q0 0.140625 -0.046875 0.28125q-0.046875 0.140625 -0.109375 0.140625l-1.578125 0q-0.40625 0 -0.53125 0.0625q-0.109375 0.0625 -0.109375 0.375l0 3.15625q0 0.640625 0.265625 1.015625q0.28125 0.359375 0.78125 0.359375q0.46875 0 0.71875 -0.0625q0.265625 -0.078125 0.46875 -0.21875q0.03125 -0.03125 0.0625 -0.03125q0.0625 0 0.078125 0.078125q0.03125 0.0625 0.03125 0.140625q0 0.078125 -0.265625 0.328125q-0.25 0.234375 -0.6875 0.4375q-0.421875 0.203125 -0.90625 0.203125z" fill-rule="nonzero"/><path fill="#000000" fill-opacity="0.0" d="m394.3386 199.22835l-154.36221 195.52757" fill-rule="evenodd"/><path stroke="#000000" stroke-width="1.0" stroke-linejoin="round" stroke-linecap="butt" d="m394.3386 199.22835l-150.64436 190.81825" fill-rule="evenodd"/><path fill="#000000" stroke="#000000" stroke-width="1.0" stroke-linecap="butt" d="m242.3978 389.0231l-1.515564 4.585388l4.1084137 -2.5384216z" fill-rule="evenodd"/><path fill="#000000" fill-opacity="0.0" d="m239.96326 394.76904l320.063 0" fill-rule="evenodd"/><path stroke="#000000" stroke-width="1.0" stroke-linejoin="round" stroke-linecap="butt" d="m239.96326 394.76904l314.063 0" fill-rule="evenodd"/><path fill="#000000" stroke="#000000" stroke-width="1.0" stroke-linecap="butt" d="m554.02625 396.42078l4.538086 -1.6517334l-4.538086 -1.6517334z" fill-rule="evenodd"/><path fill="#000000" fill-opacity="0.0" d="m394.3386 199.22835l165.70078 195.52757" fill-rule="evenodd"/><path stroke="#000000" stroke-width="1.0" stroke-linejoin="round" stroke-linecap="butt" d="m394.3386 199.22835l161.82162 190.95018" fill-rule="evenodd"/><path fill="#000000" stroke="#000000" stroke-width="1.0" stroke-linecap="butt" d="m554.90015 391.2464l4.194092 2.394226l-1.6738892 -4.5299683z" fill-rule="evenodd"/><path fill="#ffffff" d="m265.25986 265.57217l107.08661 0l0 51.212616l-107.08661 0z" fill-rule="evenodd"/><path stroke="#b7b7b7" stroke-width="1.0" stroke-linejoin="round" stroke-linecap="butt" d="m265.25986 265.57217l107.08661 0l0 51.212616l-107.08661 0z" fill-rule="evenodd"/><path fill="#000000" d="m309.74274 297.27286q-1.125 0 -2.171875 -0.375q-1.03125 -0.390625 -1.84375 -1.09375q-0.8125 -0.71875 -1.296875 -1.71875q-0.46875 -1.0 -0.46875 -2.21875q0 -1.171875 0.5 -2.15625q0.5 -0.984375 1.359375 -1.71875q0.859375 -0.75 1.96875 -1.15625q1.125 -0.40625 2.34375 -0.40625q0.625 0 1.0625 0.046875q0.4375 0.046875 0.84375 0.140625q0.40625 0.078125 0.953125 0.234375q0.234375 0.0625 0.328125 0.1875q0.109375 0.125 0.125 0.359375q0.03125 0.359375 0.078125 0.78125q0.0625 0.421875 0.078125 1.046875q0.015625 0.109375 -0.109375 0.1875q-0.125 0.078125 -0.265625 0.046875q-0.125 -0.03125 -0.171875 -0.21875q-0.171875 -0.609375 -0.375 -1.046875q-0.203125 -0.4375 -0.625 -0.71875q-0.390625 -0.28125 -0.96875 -0.40625q-0.5625 -0.140625 -1.21875 -0.140625q-0.921875 0 -1.71875 0.375q-0.796875 0.375 -1.375 1.03125q-0.5625 0.640625 -0.875 1.453125q-0.3125 0.8125 -0.3125 1.703125q0 0.96875 0.296875 1.921875q0.3125 0.9375 0.890625 1.703125q0.59375 0.75 1.40625 1.21875q0.8125 0.453125 1.796875 0.453125q1.15625 0 1.90625 -0.53125q0.75 -0.53125 1.28125 -1.46875q0.109375 -0.21875 0.328125 -0.21875q0.21875 0 0.21875 0.265625q0 0.125 -0.0625 0.40625q-0.0625 0.28125 -0.171875 0.59375q-0.109375 0.3125 -0.203125 0.546875q-0.109375 0.21875 -0.1875 0.296875q-0.0625 0.0625 -0.328125 0.140625q-0.59375 0.234375 -1.421875 0.34375q-0.8125 0.109375 -1.59375 0.109375zm6.719391 -0.015625q-0.296875 0 -0.59375 -0.21875q-0.296875 -0.21875 -0.5 -0.53125q-0.1875 -0.328125 -0.1875 -0.625q0 -0.5 0.265625 -0.78125q0.28125 -0.296875 0.875 -0.546875l1.625 -0.671875q0.328125 -0.125 0.375 -0.21875q0.0625 -0.09375 0.078125 -0.421875l0.03125 -1.015625q0.015625 -0.421875 -0.234375 -0.71875q-0.25 -0.3125 -0.71875 -0.3125q-0.234375 0 -0.484375 0.078125q-0.234375 0.078125 -0.390625 0.21875q-0.09375 0.0625 -0.125 0.1875q-0.03125 0.125 -0.03125 0.265625q0 0.0625 0 0.15625q0.015625 0.078125 0.015625 0.140625q0 0.078125 -0.203125 0.21875q-0.203125 0.125 -0.453125 0.234375q-0.25 0.109375 -0.40625 0.109375q-0.078125 0 -0.125 -0.03125q-0.046875 -0.046875 -0.046875 -0.125q0 -0.25 0.15625 -0.546875q0.171875 -0.296875 0.484375 -0.546875q0.359375 -0.34375 0.796875 -0.59375q0.4375 -0.265625 0.84375 -0.40625q0.421875 -0.140625 0.734375 -0.140625q0.578125 0 0.953125 0.40625q0.375 0.40625 0.359375 1.015625l-0.078125 3.84375q-0.015625 0.328125 0.15625 0.546875q0.171875 0.203125 0.421875 0.203125q0.40625 0 0.59375 -0.171875q0.078125 -0.078125 0.125 -0.078125q0.078125 0 0.125 0.046875q0.0625 0.046875 0.0625 0.125q0 0.171875 -0.1875 0.34375q-0.25 0.265625 -0.546875 0.40625q-0.296875 0.15625 -0.546875 0.15625q-0.734375 0 -1.171875 -0.828125l-0.046875 0q-0.53125 0.4375 -1.015625 0.625q-0.46875 0.203125 -0.984375 0.203125zm0.75 -0.765625q0.3125 0 0.53125 -0.09375q0.234375 -0.109375 0.40625 -0.28125q0.078125 -0.09375 0.140625 -0.21875q0.0625 -0.140625 0.078125 -0.4375l0.03125 -0.796875q0.015625 -0.171875 -0.015625 -0.25q-0.03125 -0.078125 -0.140625 -0.078125q-0.03125 0 -0.109375 0.015625q-0.078125 0.015625 -0.203125 0.0625q-0.84375 0.3125 -1.171875 0.640625q-0.328125 0.328125 -0.328125 0.59375q0 0.421875 0.25 0.640625q0.25 0.203125 0.53125 0.203125zm6.055908 0.765625q-0.484375 0 -0.921875 -0.15625q-0.4375 -0.140625 -0.734375 -0.421875q-0.078125 -0.171875 -0.125 -0.578125q-0.03125 -0.421875 -0.046875 -0.6875q0 -0.15625 0.203125 -0.15625q0.0625 0 0.109375 0.03125q0.0625 0.015625 0.078125 0.09375q0.21875 0.78125 0.671875 1.125q0.453125 0.328125 0.921875 0.328125q0.453125 0 0.78125 -0.3125q0.328125 -0.3125 0.328125 -0.78125q0 -0.4375 -0.296875 -0.75q-0.28125 -0.3125 -1.0 -0.75q-0.53125 -0.34375 -0.875 -0.640625q-0.328125 -0.3125 -0.484375 -0.625q-0.15625 -0.328125 -0.15625 -0.71875q0 -0.515625 0.234375 -0.921875q0.25 -0.421875 0.71875 -0.671875q0.484375 -0.25 1.203125 -0.25q0.484375 0 0.796875 0.09375q0.328125 0.09375 0.484375 0.21875q0.125 0.171875 0.21875 0.546875q0.09375 0.375 0.09375 0.703125q0 0.125 -0.15625 0.125q-0.109375 0 -0.203125 -0.046875q-0.078125 -0.046875 -0.109375 -0.109375q-0.203125 -0.515625 -0.515625 -0.796875q-0.3125 -0.28125 -0.78125 -0.28125q-0.390625 0 -0.703125 0.234375q-0.3125 0.234375 -0.3125 0.703125q0 0.375 0.21875 0.671875q0.234375 0.28125 0.875 0.640625q0.9375 0.53125 1.390625 0.984375q0.453125 0.453125 0.453125 1.203125q0 0.875 -0.65625 1.421875q-0.65625 0.53125 -1.703125 0.53125zm3.4961243 -0.171875q-0.328125 0 -0.328125 -0.171875q0 -0.140625 0.375 -0.265625q0.234375 -0.078125 0.453125 -0.203125q0.21875 -0.125 0.234375 -0.453125l0 -8.015625q0 -0.421875 -0.140625 -0.75q-0.140625 -0.328125 -0.5625 -0.390625q-0.140625 -0.03125 -0.140625 -0.234375q0 -0.140625 0.125 -0.1875q0.21875 -0.078125 0.53125 -0.171875q0.3125 -0.09375 0.640625 -0.21875q0.34375 -0.125 0.609375 -0.234375q0.0625 -0.03125 0.09375 -0.03125q0.046875 0 0.078125 0.03125q0.03125 0.03125 0.03125 0.078125q0 0.09375 -0.046875 0.28125q-0.03125 0.171875 -0.0625 0.609375q-0.03125 0.421875 -0.03125 1.296875l0 2.78125q0 0.25 0.015625 0.359375q0.03125 0.109375 0.09375 0.234375q0.25 -0.203125 0.625 -0.421875q0.375 -0.234375 0.84375 -0.40625q0.46875 -0.1875 0.96875 -0.1875q0.78125 0 1.296875 0.625q0.515625 0.609375 0.515625 1.546875l0 3.359375q0 0.328125 0.203125 0.484375q0.21875 0.140625 0.453125 0.21875q0.1875 0.046875 0.28125 0.109375q0.09375 0.0625 0.09375 0.15625q0 0.171875 -0.328125 0.171875q-0.3125 0 -0.484375 -0.03125q-0.171875 -0.015625 -0.328125 -0.03125q-0.140625 -0.015625 -0.4375 -0.015625q-0.265625 0 -0.421875 0.015625q-0.15625 0.015625 -0.328125 0.03125q-0.171875 0.03125 -0.484375 0.03125q-0.328125 0 -0.328125 -0.171875q0 -0.109375 0.09375 -0.140625q0.09375 -0.046875 0.28125 -0.125q0.234375 -0.078125 0.421875 -0.21875q0.203125 -0.15625 0.203125 -0.484375l0 -3.265625q0 -0.390625 -0.234375 -0.71875q-0.234375 -0.328125 -0.578125 -0.515625q-0.328125 -0.203125 -0.6875 -0.203125q-0.296875 0 -0.703125 0.09375q-0.390625 0.09375 -0.625 0.265625q-0.25 0.203125 -0.34375 0.4375q-0.078125 0.21875 -0.078125 0.71875l0 3.234375q0.015625 0.328125 0.1875 0.453125q0.1875 0.125 0.4375 0.203125q0.171875 0.046875 0.25 0.109375q0.09375 0.0625 0.09375 0.15625q0 0.171875 -0.3125 0.171875q-0.328125 0 -0.484375 -0.03125q-0.15625 -0.015625 -0.3125 -0.03125q-0.140625 -0.015625 -0.421875 -0.015625q-0.28125 0 -0.453125 0.015625q-0.15625 0.015625 -0.34375 0.03125q-0.1875 0.03125 -0.5 0.03125z" fill-rule="nonzero"/><path fill="#ffffff" d="m431.28348 265.57217l107.08658 0l0 51.212616l-107.08658 0z" fill-rule="evenodd"/><path stroke="#b7b7b7" stroke-width="1.0" stroke-linejoin="round" stroke-linecap="butt" d="m431.28348 265.57217l107.08658 0l0 51.212616l-107.08658 0z" fill-rule="evenodd"/><path fill="#000000" d="m467.8822 287.8041q-0.140625 0 -0.5625 -0.234375q-0.421875 -0.234375 -0.8125 -0.765625q-0.0625 -0.078125 -0.390625 -0.46875q-0.328125 -0.40625 -0.84375 -1.0q-0.5 -0.609375 -1.09375 -1.3125q-0.578125 -0.703125 -1.171875 -1.40625q-0.59375 -0.703125 -1.109375 -1.296875q-0.515625 -0.609375 -0.859375 -1.015625q-0.34375 -0.40625 -0.421875 -0.515625q-0.109375 -0.140625 -0.1875 -0.1875q-0.078125 -0.0625 -0.140625 -0.0625q-0.078125 0 -0.125 0.125q-0.03125 0.109375 -0.03125 0.21875q-0.015625 0.78125 -0.03125 1.8125q-0.015625 1.015625 -0.03125 2.109375q-0.015625 1.078125 -0.015625 2.078125q0 0.421875 0.21875 0.796875q0.21875 0.359375 0.8125 0.46875q0.265625 0.046875 0.390625 0.125q0.140625 0.0625 0.140625 0.171875q0 0.09375 -0.140625 0.125q-0.125 0.046875 -0.328125 0.046875q-0.4375 0 -0.65625 -0.03125q-0.203125 -0.015625 -0.375 -0.03125q-0.171875 -0.015625 -0.46875 -0.015625q-0.296875 0 -0.453125 0.015625q-0.15625 0.015625 -0.375 0.03125q-0.203125 0.03125 -0.640625 0.03125q-0.203125 0 -0.328125 -0.046875q-0.125 -0.03125 -0.125 -0.125q0 -0.109375 0.125 -0.171875q0.125 -0.078125 0.40625 -0.140625q0.453125 -0.125 0.65625 -0.46875q0.21875 -0.34375 0.265625 -0.84375q0.0625 -0.59375 0.125 -1.59375q0.0625 -1.0 0.109375 -2.234375q0.046875 -1.25 0.046875 -2.5625q0 -0.84375 -0.4375 -1.21875q-0.4375 -0.375 -1.140625 -0.59375q-0.0625 -0.03125 -0.28125 -0.125q-0.21875 -0.109375 -0.21875 -0.25q0 -0.15625 0.140625 -0.1875q0.15625 -0.046875 0.234375 -0.046875q0.46875 0.015625 0.75 0.03125q0.28125 0 0.5 0.015625q0.234375 0.015625 0.5 0.03125q0.28125 0 0.71875 0q0.140625 0 0.21875 0.09375q0.078125 0.078125 0.15625 0.1875q0.0625 0.09375 0.421875 0.53125q0.359375 0.4375 0.890625 1.109375q0.546875 0.65625 1.1875 1.4375q0.640625 0.78125 1.28125 1.5625q0.640625 0.765625 1.171875 1.4375q0.546875 0.65625 0.90625 1.09375q0.359375 0.421875 0.4375 0.5q0.0625 0.0625 0.171875 0.203125q0.125 0.125 0.21875 0.125q0.140625 0 0.15625 -0.34375q0 -0.21875 0 -0.84375q0.015625 -0.640625 0.015625 -1.546875q0.015625 -0.90625 0.015625 -1.953125q0 -1.0625 0 -2.171875q-0.015625 -0.3125 -0.34375 -0.5625q-0.3125 -0.265625 -0.578125 -0.3125q-0.265625 -0.046875 -0.5 -0.125q-0.21875 -0.078125 -0.21875 -0.1875q0 -0.09375 0.21875 -0.140625q0.234375 -0.046875 0.4375 -0.046875q0.15625 0 0.3125 0q0.15625 0 0.296875 0q0.15625 0 0.296875 0q0.390625 0 0.609375 0q0.234375 -0.015625 0.484375 -0.03125q0.265625 -0.015625 0.75 -0.015625q0.203125 0 0.328125 0.046875q0.140625 0.03125 0.140625 0.140625q0 0.21875 -0.53125 0.3125q-0.59375 0.109375 -0.78125 0.296875q-0.1875 0.171875 -0.234375 0.5625q0 0.078125 -0.015625 0.625q0 0.546875 0 1.390625q0 0.828125 -0.015625 1.78125q0 0.953125 0 1.90625q0 0.953125 0 1.703125q0 0.390625 0.015625 0.703125q0.03125 0.3125 0.046875 0.53125q0.03125 0.21875 0.03125 0.328125q0 0.25 -0.109375 0.3125q-0.109375 0.078125 -0.234375 0.078125zm5.3907776 -0.03125q-0.875 0 -1.53125 -0.421875q-0.65625 -0.4375 -1.03125 -1.21875q-0.359375 -0.796875 -0.359375 -1.84375q0 -0.921875 0.421875 -1.6875q0.421875 -0.765625 1.125 -1.21875q0.703125 -0.46875 1.53125 -0.46875q0.640625 0 1.140625 0.265625q0.5 0.25 0.78125 0.703125q0.28125 0.453125 0.28125 1.046875q0 0.5 -0.484375 0.5l-3.375 0q-0.21875 0 -0.3125 0.125q-0.09375 0.109375 -0.09375 0.46875q0 0.765625 0.328125 1.40625q0.34375 0.625 0.90625 1.0q0.5625 0.375 1.234375 0.375q0.484375 0 0.875 -0.1875q0.390625 -0.1875 0.6875 -0.53125q0.0625 -0.078125 0.09375 -0.09375q0.03125 -0.03125 0.09375 -0.03125q0.125 0 0.125 0.15625q0 0.296875 -0.296875 0.671875q-0.234375 0.296875 -0.578125 0.53125q-0.328125 0.21875 -0.734375 0.328125q-0.390625 0.125 -0.828125 0.125zm-1.46875 -4.84375l1.453125 0q0.390625 0 0.65625 -0.015625q0.265625 -0.015625 0.53125 -0.0625q0.078125 -0.015625 0.09375 -0.09375q0.03125 -0.09375 0.03125 -0.265625q0 -0.453125 -0.40625 -0.78125q-0.40625 -0.328125 -0.96875 -0.328125q-0.375 0 -0.75 0.21875q-0.359375 0.203125 -0.59375 0.53125q-0.234375 0.3125 -0.234375 0.640625q0 0.15625 0.1875 0.15625zm7.3337708 4.828125q-0.796875 0 -1.234375 -0.46875q-0.4375 -0.484375 -0.4375 -1.4375l0 -3.703125q0 -0.125 -0.09375 -0.171875q-0.09375 -0.0625 -0.421875 -0.0625l-0.09375 0q-0.078125 0 -0.140625 -0.109375q-0.046875 -0.109375 -0.046875 -0.21875q0 -0.03125 0.046875 -0.09375q0.046875 -0.0625 0.0625 -0.078125q0.3125 -0.234375 0.578125 -0.453125q0.265625 -0.21875 0.484375 -0.4375q0.21875 -0.21875 0.359375 -0.390625q0.078125 -0.078125 0.125 -0.125q0.0625 -0.0625 0.15625 -0.0625q0.078125 0 0.140625 0.03125q0.078125 0.03125 0.0625 0.140625l-0.078125 0.71875q-0.015625 0.171875 0.078125 0.234375q0.09375 0.0625 0.296875 0.0625l1.828125 0q0.0625 0 0.109375 0.109375q0.046875 0.109375 0.046875 0.25q0 0.140625 -0.046875 0.28125q-0.046875 0.140625 -0.109375 0.140625l-1.578125 0q-0.40625 0 -0.53125 0.0625q-0.109375 0.0625 -0.109375 0.375l0 3.15625q0 0.640625 0.265625 1.015625q0.28125 0.359375 0.78125 0.359375q0.46875 0 0.71875 -0.0625q0.265625 -0.078125 0.46875 -0.21875q0.03125 -0.03125 0.0625 -0.03125q0.0625 0 0.078125 0.078125q0.03125 0.0625 0.03125 0.140625q0 0.078125 -0.265625 0.328125q-0.25 0.234375 -0.6875 0.4375q-0.421875 0.203125 -0.90625 0.203125zm5.6021423 0.15625q-0.03125 0 -0.0625 -0.046875q-0.03125 -0.03125 -0.046875 -0.078125l-2.21875 -5.515625q-0.109375 -0.3125 -0.359375 -0.515625q-0.234375 -0.203125 -0.46875 -0.265625q-0.140625 -0.046875 -0.265625 -0.109375q-0.109375 -0.0625 -0.109375 -0.1875q0 -0.09375 0.109375 -0.109375q0.125 -0.03125 0.21875 -0.03125q0.203125 0 0.375 0.015625q0.1875 0.015625 0.375 0.046875q0.203125 0.015625 0.40625 0.015625q0.234375 0 0.453125 -0.015625q0.21875 -0.03125 0.4375 -0.046875q0.21875 -0.015625 0.4375 -0.015625q0.0625 0 0.1875 0.03125q0.140625 0.015625 0.140625 0.109375q0 0.125 -0.125 0.1875q-0.125 0.0625 -0.25 0.109375q-0.15625 0.046875 -0.25 0.234375q-0.078125 0.1875 -0.078125 0.40625q0 0.203125 0.078125 0.421875l1.25 3.203125q0.015625 0.0625 0.078125 0.0625q0.0625 0 0.078125 -0.0625l1.09375 -2.59375q0.078125 -0.203125 0.09375 -0.390625q0.03125 -0.1875 0.03125 -0.375q0 -0.34375 -0.28125 -0.5625q-0.265625 -0.234375 -0.53125 -0.34375q-0.140625 -0.046875 -0.265625 -0.109375q-0.109375 -0.0625 -0.109375 -0.1875q0 -0.09375 0.109375 -0.109375q0.109375 -0.03125 0.21875 -0.03125q0.21875 0 0.484375 0.046875q0.265625 0.03125 0.703125 0.03125q0.453125 0 0.765625 -0.03125q0.328125 -0.046875 0.578125 -0.046875q0.078125 0 0.203125 0.03125q0.125 0.015625 0.125 0.109375q0 0.125 -0.125 0.1875q-0.125 0.0625 -0.25 0.109375q-0.171875 0.0625 -0.359375 0.171875q-0.1875 0.109375 -0.1875 0.40625q0 0.09375 0.03125 0.21875q0.03125 0.109375 0.09375 0.265625l1.1875 3.078125q0.09375 0.171875 0.140625 0.171875q0.0625 0 0.125 -0.15625l1.21875 -2.828125q0.0625 -0.125 0.078125 -0.3125q0.03125 -0.203125 0.03125 -0.3125q0 -0.28125 -0.203125 -0.453125q-0.1875 -0.1875 -0.359375 -0.25q-0.125 -0.046875 -0.25 -0.109375q-0.125 -0.0625 -0.125 -0.1875q0 -0.09375 0.125 -0.109375q0.125 -0.03125 0.203125 -0.03125q0.34375 0 0.546875 0.046875q0.21875 0.03125 0.65625 0.03125q0.296875 0 0.421875 -0.015625q0.140625 -0.03125 0.234375 -0.046875q0.09375 -0.015625 0.265625 -0.015625q0.09375 0 0.203125 0.03125q0.125 0.015625 0.125 0.109375q0 0.125 -0.125 0.1875q-0.125 0.0625 -0.25 0.109375q-0.234375 0.0625 -0.46875 0.375q-0.21875 0.3125 -0.375 0.6875l-2.203125 5.234375q-0.046875 0.125 -0.140625 0.125q-0.0625 0 -0.125 -0.125l-1.65625 -4.125q-0.0625 -0.125 -0.109375 -0.140625q-0.046875 0 -0.109375 0.15625l-1.734375 4.109375q-0.046875 0.125 -0.140625 0.125zm10.700653 -0.15625q-0.90625 0 -1.625 -0.40625q-0.71875 -0.421875 -1.140625 -1.140625q-0.421875 -0.734375 -0.421875 -1.65625q0 -0.671875 0.265625 -1.3125q0.265625 -0.640625 0.734375 -1.171875q0.484375 -0.53125 1.125 -0.84375q0.640625 -0.3125 1.375 -0.3125q0.921875 0 1.671875 0.453125q0.75 0.4375 1.1875 1.171875q0.4375 0.734375 0.4375 1.59375q0 0.921875 -0.40625 1.765625q-0.40625 0.828125 -1.21875 1.34375q-0.796875 0.515625 -1.984375 0.515625zm0.328125 -0.46875q0.546875 0 0.96875 -0.203125q0.4375 -0.21875 0.6875 -0.6875q0.1875 -0.359375 0.25 -0.890625q0.0625 -0.53125 0.0625 -1.0q0 -0.765625 -0.28125 -1.46875q-0.28125 -0.71875 -0.78125 -1.171875q-0.5 -0.453125 -1.1875 -0.453125q-0.4375 0 -0.78125 0.140625q-0.34375 0.125 -0.625 0.5q-0.328125 0.390625 -0.421875 0.96875q-0.09375 0.578125 -0.09375 1.15625q0 0.78125 0.28125 1.5q0.296875 0.703125 0.78125 1.15625q0.5 0.453125 1.140625 0.453125zm4.6231384 0.296875q-0.15625 0 -0.234375 -0.046875q-0.078125 -0.03125 -0.078125 -0.125q0 -0.125 0.09375 -0.171875q0.09375 -0.046875 0.265625 -0.09375q0.3125 -0.078125 0.453125 -0.21875q0.15625 -0.15625 0.15625 -0.375l0 -3.453125q0 -0.421875 -0.125 -0.734375q-0.125 -0.328125 -0.53125 -0.40625q-0.0625 -0.015625 -0.109375 -0.078125q-0.046875 -0.078125 -0.046875 -0.140625q0 -0.15625 0.140625 -0.1875q0.421875 -0.125 0.875 -0.375q0.453125 -0.25 0.71875 -0.40625q0.09375 -0.0625 0.140625 -0.078125q0.0625 -0.03125 0.09375 -0.03125q0.078125 0 0.078125 0.109375q0 0.046875 -0.015625 0.234375q0 0.1875 -0.015625 0.453125q0 0.25 -0.015625 0.515625q0 0.03125 0.03125 0.03125q0.25 -0.328125 0.5625 -0.5625q0.3125 -0.25 0.640625 -0.390625q0.328125 -0.140625 0.640625 -0.140625q0.328125 0 0.546875 0.140625q0.21875 0.140625 0.21875 0.375q0 0.15625 -0.09375 0.359375q-0.078125 0.1875 -0.234375 0.328125q-0.140625 0.140625 -0.296875 0.140625q-0.09375 0 -0.21875 -0.03125q-0.109375 -0.046875 -0.234375 -0.109375q-0.125 -0.046875 -0.25 -0.09375q-0.125 -0.046875 -0.25 -0.046875q-0.390625 0 -0.75 0.265625q-0.359375 0.265625 -0.359375 1.078125l0 3.234375q0 0.203125 0.21875 0.34375q0.234375 0.125 0.625 0.25q0.171875 0.046875 0.265625 0.109375q0.109375 0.046875 0.109375 0.15625q0 0.171875 -0.328125 0.171875q-0.484375 0 -0.734375 -0.046875q-0.234375 -0.03125 -0.65625 -0.03125q-0.265625 0 -0.4375 0.015625q-0.171875 0.015625 -0.359375 0.03125q-0.171875 0.03125 -0.5 0.03125zm5.2346497 0q-0.375 0 -0.375 -0.171875q0 -0.125 0.125 -0.171875q0.125 -0.046875 0.25 -0.09375q0.234375 -0.078125 0.453125 -0.203125q0.234375 -0.125 0.234375 -0.453125l0 -8.015625q0 -0.546875 -0.15625 -0.796875q-0.15625 -0.265625 -0.5625 -0.359375q-0.140625 -0.03125 -0.140625 -0.21875q0 -0.15625 0.125 -0.1875q0.421875 -0.09375 0.71875 -0.1875q0.296875 -0.109375 0.546875 -0.21875q0.25 -0.109375 0.5 -0.203125q0.09375 -0.046875 0.140625 -0.046875q0.046875 0 0.0625 0.03125q0.03125 0.03125 0.03125 0.109375q0 0.171875 -0.078125 0.65625q-0.0625 0.46875 -0.0625 1.5l0 5.234375q0 0.15625 0.078125 0.15625q0.09375 0 0.234375 -0.078125q0.15625 -0.09375 0.34375 -0.25q0.65625 -0.5625 1.09375 -1.015625q0.4375 -0.453125 0.59375 -0.625q0.078125 -0.09375 0.109375 -0.15625q0.03125 -0.0625 0.03125 -0.09375q0 -0.078125 -0.140625 -0.140625q-0.125 -0.0625 -0.265625 -0.09375q-0.1875 -0.046875 -0.1875 -0.15625q0 -0.078125 0.09375 -0.140625q0.09375 -0.0625 0.25 -0.0625l0.78125 0q0.265625 0 0.53125 -0.046875q0.28125 -0.046875 0.53125 -0.09375q0.25 -0.046875 0.390625 -0.046875q0.234375 0 0.234375 0.15625q0 0.09375 -0.125 0.171875q-0.109375 0.078125 -0.28125 0.125q-0.296875 0.078125 -0.5625 0.21875q-0.265625 0.140625 -0.484375 0.28125q-0.109375 0.0625 -0.453125 0.34375q-0.34375 0.265625 -0.78125 0.640625q-0.4375 0.375 -0.8125 0.703125q-0.109375 0.09375 -0.109375 0.15625q0 0.015625 0.015625 0.046875q0.015625 0.03125 0.03125 0.0625q0.421875 0.515625 0.90625 1.046875q0.484375 0.53125 0.890625 0.9375q0.40625 0.390625 0.5625 0.546875q0.265625 0.265625 0.609375 0.46875q0.34375 0.1875 0.59375 0.265625q0.171875 0.0625 0.3125 0.125q0.15625 0.046875 0.15625 0.171875q0 0.171875 -0.3125 0.171875q-0.625 0 -1.40625 -0.03125q-0.765625 -0.015625 -1.578125 -0.015625q-0.296875 0 -0.296875 -0.140625q0 -0.09375 0.078125 -0.15625q0.078125 -0.078125 0.203125 -0.109375q0.171875 -0.0625 0.296875 -0.140625q0.125 -0.078125 0.125 -0.21875q0 -0.046875 -0.03125 -0.09375q-0.03125 -0.0625 -0.078125 -0.125l-1.9375 -2.203125q-0.09375 -0.109375 -0.15625 -0.109375q-0.078125 0 -0.078125 0.109375q-0.015625 0.234375 -0.015625 0.5q0 0.25 0 0.53125q0 0.265625 0 0.5625q0 0.28125 0.015625 0.546875q0 0.328125 0.15625 0.453125q0.15625 0.125 0.40625 0.203125q0.125 0.046875 0.234375 0.09375q0.125 0.046875 0.125 0.171875q0 0.109375 -0.15625 0.140625q-0.140625 0.03125 -0.203125 0.03125q-0.3125 0 -0.453125 -0.03125q-0.140625 -0.015625 -0.265625 -0.03125q-0.125 -0.015625 -0.40625 -0.015625q-0.28125 0 -0.4375 0.015625q-0.15625 0.015625 -0.328125 0.03125q-0.171875 0.03125 -0.484375 0.03125z" fill-rule="nonzero"/><path fill="#000000" d="m470.12573 306.75723q-0.296875 0 -0.59375 -0.21875q-0.296875 -0.21875 -0.5 -0.53125q-0.1875 -0.328125 -0.1875 -0.625q0 -0.5 0.265625 -0.78125q0.28125 -0.296875 0.875 -0.546875l1.625 -0.671875q0.328125 -0.125 0.375 -0.21875q0.0625 -0.09375 0.078125 -0.421875l0.03125 -1.015625q0.015625 -0.421875 -0.234375 -0.71875q-0.25 -0.3125 -0.71875 -0.3125q-0.234375 0 -0.484375 0.078125q-0.234375 0.078125 -0.390625 0.21875q-0.09375 0.0625 -0.125 0.1875q-0.03125 0.125 -0.03125 0.265625q0 0.0625 0 0.15625q0.015625 0.078125 0.015625 0.140625q0 0.078125 -0.203125 0.21875q-0.203125 0.125 -0.453125 0.234375q-0.25 0.109375 -0.40625 0.109375q-0.078125 0 -0.125 -0.03125q-0.046875 -0.046875 -0.046875 -0.125q0 -0.25 0.15625 -0.546875q0.171875 -0.296875 0.484375 -0.546875q0.359375 -0.34375 0.796875 -0.59375q0.4375 -0.265625 0.84375 -0.40625q0.421875 -0.140625 0.734375 -0.140625q0.578125 0 0.953125 0.40625q0.375 0.40625 0.359375 1.015625l-0.078125 3.84375q-0.015625 0.328125 0.15625 0.546875q0.171875 0.203125 0.421875 0.203125q0.40625 0 0.59375 -0.171875q0.078125 -0.078125 0.125 -0.078125q0.078125 0 0.125 0.046875q0.0625 0.046875 0.0625 0.125q0 0.171875 -0.1875 0.34375q-0.25 0.265625 -0.546875 0.40625q-0.296875 0.15625 -0.546875 0.15625q-0.734375 0 -1.171875 -0.828125l-0.046875 0q-0.53125 0.4375 -1.015625 0.625q-0.46875 0.203125 -0.984375 0.203125zm0.75 -0.765625q0.3125 0 0.53125 -0.09375q0.234375 -0.109375 0.40625 -0.28125q0.078125 -0.09375 0.140625 -0.21875q0.0625 -0.140625 0.078125 -0.4375l0.03125 -0.796875q0.015625 -0.171875 -0.015625 -0.25q-0.03125 -0.078125 -0.140625 -0.078125q-0.03125 0 -0.109375 0.015625q-0.078125 0.015625 -0.203125 0.0625q-0.84375 0.3125 -1.171875 0.640625q-0.328125 0.328125 -0.328125 0.59375q0 0.421875 0.25 0.640625q0.25 0.203125 0.53125 0.203125zm6.0558777 0.765625q-0.484375 0 -0.921875 -0.15625q-0.4375 -0.140625 -0.734375 -0.421875q-0.078125 -0.171875 -0.125 -0.578125q-0.03125 -0.421875 -0.046875 -0.6875q0 -0.15625 0.203125 -0.15625q0.0625 0 0.109375 0.03125q0.0625 0.015625 0.078125 0.09375q0.21875 0.78125 0.671875 1.125q0.453125 0.328125 0.921875 0.328125q0.453125 0 0.78125 -0.3125q0.328125 -0.3125 0.328125 -0.78125q0 -0.4375 -0.296875 -0.75q-0.28125 -0.3125 -1.0 -0.75q-0.53125 -0.34375 -0.875 -0.640625q-0.328125 -0.3125 -0.484375 -0.625q-0.15625 -0.328125 -0.15625 -0.71875q0 -0.515625 0.234375 -0.921875q0.25 -0.421875 0.71875 -0.671875q0.484375 -0.25 1.203125 -0.25q0.484375 0 0.796875 0.09375q0.328125 0.09375 0.484375 0.21875q0.125 0.171875 0.21875 0.546875q0.09375 0.375 0.09375 0.703125q0 0.125 -0.15625 0.125q-0.109375 0 -0.203125 -0.046875q-0.078125 -0.046875 -0.109375 -0.109375q-0.203125 -0.515625 -0.515625 -0.796875q-0.3125 -0.28125 -0.78125 -0.28125q-0.390625 0 -0.703125 0.234375q-0.3125 0.234375 -0.3125 0.703125q0 0.375 0.21875 0.671875q0.234375 0.28125 0.875 0.640625q0.9375 0.53125 1.390625 0.984375q0.453125 0.453125 0.453125 1.203125q0 0.875 -0.65625 1.421875q-0.65625 0.53125 -1.703125 0.53125zm5.16803 0q-0.484375 0 -0.921875 -0.15625q-0.4375 -0.140625 -0.734375 -0.421875q-0.078125 -0.171875 -0.125 -0.578125q-0.03125 -0.421875 -0.046875 -0.6875q0 -0.15625 0.203125 -0.15625q0.0625 0 0.109375 0.03125q0.0625 0.015625 0.078125 0.09375q0.21875 0.78125 0.671875 1.125q0.453125 0.328125 0.921875 0.328125q0.453125 0 0.78125 -0.3125q0.328125 -0.3125 0.328125 -0.78125q0 -0.4375 -0.296875 -0.75q-0.28125 -0.3125 -1.0 -0.75q-0.53125 -0.34375 -0.875 -0.640625q-0.328125 -0.3125 -0.484375 -0.625q-0.15625 -0.328125 -0.15625 -0.71875q0 -0.515625 0.234375 -0.921875q0.25 -0.421875 0.71875 -0.671875q0.484375 -0.25 1.203125 -0.25q0.484375 0 0.796875 0.09375q0.328125 0.09375 0.484375 0.21875q0.125 0.171875 0.21875 0.546875q0.09375 0.375 0.09375 0.703125q0 0.125 -0.15625 0.125q-0.109375 0 -0.203125 -0.046875q-0.078125 -0.046875 -0.109375 -0.109375q-0.203125 -0.515625 -0.515625 -0.796875q-0.3125 -0.28125 -0.78125 -0.28125q-0.390625 0 -0.703125 0.234375q-0.3125 0.234375 -0.3125 0.703125q0 0.375 0.21875 0.671875q0.234375 0.28125 0.875 0.640625q0.9375 0.53125 1.390625 0.984375q0.453125 0.453125 0.453125 1.203125q0 0.875 -0.65625 1.421875q-0.65625 0.53125 -1.703125 0.53125zm6.2773743 0.015625q-0.875 0 -1.53125 -0.421875q-0.65625 -0.4375 -1.03125 -1.21875q-0.359375 -0.796875 -0.359375 -1.84375q0 -0.921875 0.421875 -1.6875q0.421875 -0.765625 1.125 -1.21875q0.703125 -0.46875 1.53125 -0.46875q0.640625 0 1.140625 0.265625q0.5 0.25 0.78125 0.703125q0.28125 0.453125 0.28125 1.046875q0 0.5 -0.484375 0.5l-3.375 0q-0.21875 0 -0.3125 0.125q-0.09375 0.109375 -0.09375 0.46875q0 0.765625 0.328125 1.40625q0.34375 0.625 0.90625 1.0q0.5625 0.375 1.234375 0.375q0.484375 0 0.875 -0.1875q0.390625 -0.1875 0.6875 -0.53125q0.0625 -0.078125 0.09375 -0.09375q0.03125 -0.03125 0.09375 -0.03125q0.125 0 0.125 0.15625q0 0.296875 -0.296875 0.671875q-0.234375 0.296875 -0.578125 0.53125q-0.328125 0.21875 -0.734375 0.328125q-0.390625 0.125 -0.828125 0.125zm-1.46875 -4.84375l1.453125 0q0.390625 0 0.65625 -0.015625q0.265625 -0.015625 0.53125 -0.0625q0.078125 -0.015625 0.09375 -0.09375q0.03125 -0.09375 0.03125 -0.265625q0 -0.453125 -0.40625 -0.78125q-0.40625 -0.328125 -0.96875 -0.328125q-0.375 0 -0.75 0.21875q-0.359375 0.203125 -0.59375 0.53125q-0.234375 0.3125 -0.234375 0.640625q0 0.15625 0.1875 0.15625zm7.3337708 4.828125q-0.796875 0 -1.234375 -0.46875q-0.4375 -0.484375 -0.4375 -1.4375l0 -3.703125q0 -0.125 -0.09375 -0.171875q-0.09375 -0.0625 -0.421875 -0.0625l-0.09375 0q-0.078125 0 -0.140625 -0.109375q-0.046875 -0.109375 -0.046875 -0.21875q0 -0.03125 0.046875 -0.09375q0.046875 -0.0625 0.0625 -0.078125q0.3125 -0.234375 0.578125 -0.453125q0.265625 -0.21875 0.484375 -0.4375q0.21875 -0.21875 0.359375 -0.390625q0.078125 -0.078125 0.125 -0.125q0.0625 -0.0625 0.15625 -0.0625q0.078125 0 0.140625 0.03125q0.078125 0.03125 0.0625 0.140625l-0.078125 0.71875q-0.015625 0.171875 0.078125 0.234375q0.09375 0.0625 0.296875 0.0625l1.828125 0q0.0625 0 0.109375 0.109375q0.046875 0.109375 0.046875 0.25q0 0.140625 -0.046875 0.28125q-0.046875 0.140625 -0.109375 0.140625l-1.578125 0q-0.40625 0 -0.53125 0.0625q-0.109375 0.0625 -0.109375 0.375l0 3.15625q0 0.640625 0.265625 1.015625q0.28125 0.359375 0.78125 0.359375q0.46875 0 0.71875 -0.0625q0.265625 -0.078125 0.46875 -0.21875q0.03125 -0.03125 0.0625 -0.03125q0.0625 0 0.078125 0.078125q0.03125 0.0625 0.03125 0.140625q0 0.078125 -0.265625 0.328125q-0.25 0.234375 -0.6875 0.4375q-0.421875 0.203125 -0.90625 0.203125zm4.2896423 0q-0.484375 0 -0.921875 -0.15625q-0.4375 -0.140625 -0.734375 -0.421875q-0.078125 -0.171875 -0.125 -0.578125q-0.03125 -0.421875 -0.046875 -0.6875q0 -0.15625 0.203125 -0.15625q0.0625 0 0.109375 0.03125q0.0625 0.015625 0.078125 0.09375q0.21875 0.78125 0.671875 1.125q0.453125 0.328125 0.921875 0.328125q0.453125 0 0.78125 -0.3125q0.328125 -0.3125 0.328125 -0.78125q0 -0.4375 -0.296875 -0.75q-0.28125 -0.3125 -1.0 -0.75q-0.53125 -0.34375 -0.875 -0.640625q-0.328125 -0.3125 -0.484375 -0.625q-0.15625 -0.328125 -0.15625 -0.71875q0 -0.515625 0.234375 -0.921875q0.25 -0.421875 0.71875 -0.671875q0.484375 -0.25 1.203125 -0.25q0.484375 0 0.796875 0.09375q0.328125 0.09375 0.484375 0.21875q0.125 0.171875 0.21875 0.546875q0.09375 0.375 0.09375 0.703125q0 0.125 -0.15625 0.125q-0.109375 0 -0.203125 -0.046875q-0.078125 -0.046875 -0.109375 -0.109375q-0.203125 -0.515625 -0.515625 -0.796875q-0.3125 -0.28125 -0.78125 -0.28125q-0.390625 0 -0.703125 0.234375q-0.3125 0.234375 -0.3125 0.703125q0 0.375 0.21875 0.671875q0.234375 0.28125 0.875 0.640625q0.9375 0.53125 1.390625 0.984375q0.453125 0.453125 0.453125 1.203125q0 0.875 -0.65625 1.421875q-0.65625 0.53125 -1.703125 0.53125z" fill-rule="nonzero"/><path fill="#ffffff" d="m340.7953 369.16272l107.08661 0l0 51.212616l-107.08661 0z" fill-rule="evenodd"/><path stroke="#b7b7b7" stroke-width="1.0" stroke-linejoin="round" stroke-linecap="butt" d="m340.7953 369.16272l107.08661 0l0 51.212616l-107.08661 0z" fill-rule="evenodd"/><path fill="#000000" d="m375.48904 400.70715q-0.21875 0 -0.34375 -0.0625q-0.125 -0.046875 -0.125 -0.140625q0 -0.15625 0.515625 -0.265625q0.609375 -0.109375 0.78125 -0.359375q0.1875 -0.265625 0.1875 -0.828125l0 -7.234375q0 -0.5625 -0.125 -0.796875q-0.109375 -0.234375 -0.71875 -0.34375q-0.53125 -0.09375 -0.53125 -0.28125q0 -0.109375 0.109375 -0.15625q0.109375 -0.0625 0.359375 -0.0625q0.421875 0 0.65625 0.015625q0.25 0.015625 0.453125 0.03125q0.21875 0 0.53125 0q0.34375 0 0.546875 0q0.21875 -0.015625 0.46875 -0.03125q0.25 -0.015625 0.6875 -0.015625q0.453125 0 0.453125 0.21875q0 0.109375 -0.125 0.171875q-0.125 0.0625 -0.390625 0.109375q-0.59375 0.109375 -0.84375 0.390625q-0.25 0.28125 -0.25 0.75l0 3.15625q0 0.09375 0.078125 0.125q0.078125 0.015625 0.140625 0.015625l5.9375 0q0.109375 0 0.109375 -0.203125l0 -3.109375q0 -0.4375 -0.21875 -0.71875q-0.21875 -0.296875 -0.828125 -0.40625q-0.28125 -0.046875 -0.40625 -0.109375q-0.125 -0.0625 -0.125 -0.171875q0 -0.21875 0.46875 -0.21875q0.421875 0 0.703125 0.015625q0.28125 0.015625 0.53125 0.03125q0.265625 0 0.625 0q0.28125 0 0.4375 0q0.15625 -0.015625 0.359375 -0.03125q0.21875 -0.015625 0.65625 -0.015625q0.21875 0 0.328125 0.0625q0.125 0.046875 0.125 0.15625q0 0.1875 -0.515625 0.28125q-0.59375 0.109375 -0.734375 0.390625q-0.125 0.265625 -0.125 0.734375l0 7.234375q0 0.578125 0.15625 0.84375q0.15625 0.25 0.75 0.359375q0.5 0.109375 0.5 0.265625q0 0.09375 -0.125 0.140625q-0.125 0.0625 -0.328125 0.0625q-0.4375 0 -0.6875 -0.03125q-0.234375 -0.015625 -0.4375 -0.03125q-0.203125 -0.015625 -0.546875 -0.015625q-0.328125 0 -0.546875 0.015625q-0.21875 0.015625 -0.484375 0.03125q-0.25 0.03125 -0.671875 0.03125q-0.21875 0 -0.34375 -0.0625q-0.125 -0.046875 -0.125 -0.140625q0 -0.109375 0.109375 -0.15625q0.125 -0.0625 0.40625 -0.109375q0.515625 -0.09375 0.796875 -0.375q0.296875 -0.28125 0.296875 -0.78125l0 -3.125q0 -0.078125 0 -0.15625q0 -0.078125 -0.078125 -0.078125l-6.109375 0q-0.078125 0 -0.078125 0.171875l0 3.03125q0 0.5 0.359375 0.859375q0.375 0.359375 0.921875 0.453125q0.265625 0.046875 0.390625 0.109375q0.125 0.046875 0.125 0.15625q0 0.09375 -0.140625 0.140625q-0.125 0.0625 -0.328125 0.0625q-0.4375 0 -0.71875 -0.03125q-0.265625 -0.015625 -0.53125 -0.03125q-0.25 -0.015625 -0.625 -0.015625q-0.328125 0 -0.5625 0.015625q-0.234375 0.015625 -0.5 0.03125q-0.265625 0.03125 -0.6875 0.03125zm15.647522 0.140625q-0.90625 0 -1.625 -0.40625q-0.71875 -0.421875 -1.140625 -1.140625q-0.421875 -0.734375 -0.421875 -1.65625q0 -0.671875 0.265625 -1.3125q0.265625 -0.640625 0.734375 -1.171875q0.484375 -0.53125 1.125 -0.84375q0.640625 -0.3125 1.375 -0.3125q0.921875 0 1.671875 0.453125q0.75 0.4375 1.1875 1.171875q0.4375 0.734375 0.4375 1.59375q0 0.921875 -0.40625 1.765625q-0.40625 0.828125 -1.21875 1.34375q-0.796875 0.515625 -1.984375 0.515625zm0.328125 -0.46875q0.546875 0 0.96875 -0.203125q0.4375 -0.21875 0.6875 -0.6875q0.1875 -0.359375 0.25 -0.890625q0.0625 -0.53125 0.0625 -1.0q0 -0.765625 -0.28125 -1.46875q-0.28125 -0.71875 -0.78125 -1.171875q-0.5 -0.453125 -1.1875 -0.453125q-0.4375 0 -0.78125 0.140625q-0.34375 0.125 -0.625 0.5q-0.328125 0.390625 -0.421875 0.96875q-0.09375 0.578125 -0.09375 1.15625q0 0.78125 0.28125 1.5q0.296875 0.703125 0.78125 1.15625q0.5 0.453125 1.140625 0.453125zm9.701263 0.546875q-0.109375 0 -0.109375 -0.125q0 -0.15625 0.03125 -0.46875q0.046875 -0.3125 0.046875 -0.515625q0 -0.03125 0 -0.046875q0 -0.03125 0 -0.046875q-0.625 0.609375 -1.265625 0.875q-0.625 0.25 -1.375 0.25q-0.515625 0 -0.9375 -0.21875q-0.40625 -0.203125 -0.65625 -0.625q-0.234375 -0.4375 -0.234375 -1.0625l0 -3.234375q0 -0.359375 -0.15625 -0.5625q-0.15625 -0.21875 -0.53125 -0.359375q-0.078125 -0.03125 -0.140625 -0.078125q-0.0625 -0.046875 -0.0625 -0.171875q0 -0.140625 0.0625 -0.1875q0.078125 -0.0625 0.171875 -0.078125q0.546875 -0.03125 0.84375 -0.078125q0.296875 -0.0625 0.734375 -0.171875q0.0625 -0.015625 0.078125 -0.015625q0.03125 0 0.0625 0q0.171875 0 0.15625 0.21875q-0.046875 0.375 -0.078125 0.625q-0.015625 0.25 -0.015625 0.609375l0 3.125q0 0.390625 0.1875 0.71875q0.1875 0.3125 0.5 0.53125q0.3125 0.203125 0.65625 0.203125q0.40625 0 0.71875 -0.046875q0.3125 -0.046875 0.625 -0.265625q0.171875 -0.140625 0.4375 -0.421875q0.28125 -0.28125 0.28125 -0.78125l0 -2.9375q0 -0.328125 -0.203125 -0.5q-0.203125 -0.171875 -0.46875 -0.234375q-0.25 -0.0625 -0.40625 -0.0625q-0.140625 0 -0.234375 -0.046875q-0.09375 -0.0625 -0.09375 -0.21875q0 -0.140625 0.09375 -0.1875q0.109375 -0.0625 0.234375 -0.0625q0.5 -0.015625 0.828125 -0.03125q0.328125 -0.03125 0.59375 -0.078125q0.265625 -0.0625 0.546875 -0.140625q0.03125 -0.015625 0.078125 -0.015625q0.046875 -0.015625 0.078125 -0.015625q0.21875 0 0.21875 0.171875q0 0.015625 -0.015625 0.0625q0 0.03125 -0.015625 0.09375q-0.015625 0.046875 -0.046875 0.265625q-0.015625 0.21875 -0.046875 0.46875q-0.015625 0.234375 -0.015625 0.359375l0 3.703125q0 0.421875 0.078125 0.609375q0.09375 0.1875 0.203125 0.1875q0.125 0 0.375 -0.015625q0.25 -0.03125 0.359375 -0.03125q0.078125 0 0.15625 0.03125q0.078125 0.03125 0.078125 0.171875q0 0.125 -0.0625 0.171875q-0.0625 0.03125 -0.15625 0.046875q-0.625 0.09375 -1.078125 0.25q-0.4375 0.15625 -0.796875 0.296875q-0.046875 0.015625 -0.140625 0.046875q-0.09375 0.046875 -0.171875 0.046875zm3.3538818 -0.25q-0.15625 0 -0.234375 -0.046875q-0.078125 -0.03125 -0.078125 -0.125q0 -0.125 0.09375 -0.171875q0.09375 -0.046875 0.265625 -0.09375q0.31253052 -0.078125 0.45315552 -0.21875q0.15625 -0.15625 0.15625 -0.375l0 -3.453125q0 -0.421875 -0.125 -0.734375q-0.125 -0.328125 -0.5312805 -0.40625q-0.0625 -0.015625 -0.109375 -0.078125q-0.046875 -0.078125 -0.046875 -0.140625q0 -0.15625 0.140625 -0.1875q0.42190552 -0.125 0.8750305 -0.375q0.453125 -0.25 0.71875 -0.40625q0.09375 -0.0625 0.140625 -0.078125q0.0625 -0.03125 0.09375 -0.03125q0.078125 0 0.078125 0.109375q0 0.046875 -0.015625 0.234375q0 0.1875 -0.015625 0.453125q0 0.25 -0.015625 0.515625q0 0.03125 0.03125 0.03125q0.25 -0.328125 0.5625 -0.5625q0.3125 -0.25 0.640625 -0.390625q0.328125 -0.140625 0.640625 -0.140625q0.328125 0 0.546875 0.140625q0.21875 0.140625 0.21875 0.375q0 0.15625 -0.09375 0.359375q-0.078125 0.1875 -0.234375 0.328125q-0.140625 0.140625 -0.296875 0.140625q-0.09375 0 -0.21875 -0.03125q-0.109375 -0.046875 -0.234375 -0.109375q-0.125 -0.046875 -0.25 -0.09375q-0.125 -0.046875 -0.25 -0.046875q-0.390625 0 -0.75 0.265625q-0.359375 0.265625 -0.359375 1.078125l0 3.234375q0 0.203125 0.21875 0.34375q0.234375 0.125 0.625 0.25q0.171875 0.046875 0.265625 0.109375q0.109375 0.046875 0.109375 0.15625q0 0.171875 -0.328125 0.171875q-0.484375 0 -0.734375 -0.046875q-0.234375 -0.03125 -0.65625 -0.03125q-0.265625 0 -0.4375 0.015625q-0.171875 0.015625 -0.359375 0.03125q-0.171875 0.03125 -0.5000305 0.03125zm6.8596497 0.171875q-0.484375 0 -0.921875 -0.15625q-0.4375 -0.140625 -0.734375 -0.421875q-0.078125 -0.171875 -0.125 -0.578125q-0.03125 -0.421875 -0.046875 -0.6875q0 -0.15625 0.203125 -0.15625q0.0625 0 0.109375 0.03125q0.0625 0.015625 0.078125 0.09375q0.21875 0.78125 0.671875 1.125q0.453125 0.328125 0.921875 0.328125q0.453125 0 0.78125 -0.3125q0.328125 -0.3125 0.328125 -0.78125q0 -0.4375 -0.296875 -0.75q-0.28125 -0.3125 -1.0 -0.75q-0.53125 -0.34375 -0.875 -0.640625q-0.328125 -0.3125 -0.484375 -0.625q-0.15625 -0.328125 -0.15625 -0.71875q0 -0.515625 0.234375 -0.921875q0.25 -0.421875 0.71875 -0.671875q0.484375 -0.25 1.203125 -0.25q0.484375 0 0.796875 0.09375q0.328125 0.09375 0.484375 0.21875q0.125 0.171875 0.21875 0.546875q0.09375 0.375 0.09375 0.703125q0 0.125 -0.15625 0.125q-0.109375 0 -0.203125 -0.046875q-0.078125 -0.046875 -0.109375 -0.109375q-0.203125 -0.515625 -0.515625 -0.796875q-0.3125 -0.28125 -0.78125 -0.28125q-0.390625 0 -0.703125 0.234375q-0.3125 0.234375 -0.3125 0.703125q0 0.375 0.21875 0.671875q0.234375 0.28125 0.875 0.640625q0.9375 0.53125 1.390625 0.984375q0.453125 0.453125 0.453125 1.203125q0 0.875 -0.65625 1.421875q-0.65625 0.53125 -1.703125 0.53125z" fill-rule="nonzero"/><path fill="#000000" fill-opacity="0.0" d="m630.021 324.7848l-165.70078 -195.52757" fill-rule="evenodd"/><path stroke="#000000" stroke-width="1.0" stroke-linejoin="round" stroke-linecap="butt" d="m630.021 324.7848l-161.82166 -190.9502" fill-rule="evenodd"/><path fill="#000000" stroke="#000000" stroke-width="1.0" stroke-linecap="butt" d="m469.45944 132.76672l-4.194092 -2.394226l1.6738892 4.5299835z" fill-rule="evenodd"/><path fill="#ffffff" d="m538.37006 214.35957l107.08661 0l0 51.2126l-107.08661 0z" fill-rule="evenodd"/><path stroke="#b7b7b7" stroke-width="1.0" stroke-linejoin="round" stroke-linecap="butt" d="m538.37006 214.35957l107.08661 0l0 51.2126l-107.08661 0z" fill-rule="evenodd"/><path fill="#000000" d="m572.29584 245.904q-0.21875 0 -0.34375 -0.046875q-0.125 -0.03125 -0.125 -0.125q0 -0.1875 0.53125 -0.296875q0.609375 -0.109375 0.890625 -0.359375q0.28125 -0.265625 0.28125 -0.828125l0 -7.203125q0 -0.578125 -0.234375 -0.8125q-0.21875 -0.25 -0.828125 -0.359375q-0.28125 -0.046875 -0.40625 -0.125q-0.125 -0.078125 -0.125 -0.1875q0 -0.109375 0.125 -0.140625q0.125 -0.046875 0.34375 -0.046875q0.609375 0 1.03125 0.015625q0.421875 0.015625 0.828125 0.03125q0.40625 0 0.96875 0q0.53125 0 1.109375 0q0.59375 -0.015625 1.078125 -0.015625q0.546875 -0.015625 0.921875 -0.015625q0.375 -0.015625 0.4375 -0.015625q0.078125 0 0.171875 0.03125q0.109375 0.03125 0.125 0.125q0.078125 0.4375 0.15625 0.890625q0.078125 0.4375 0.078125 0.75q0 0.140625 -0.078125 0.1875q-0.0625 0.046875 -0.140625 0.046875q-0.078125 0 -0.109375 -0.03125q-0.03125 -0.046875 -0.0625 -0.125q-0.09375 -0.265625 -0.171875 -0.515625q-0.078125 -0.25 -0.1875 -0.359375q-0.21875 -0.265625 -0.5 -0.34375q-0.265625 -0.09375 -0.578125 -0.09375l-2.09375 0q-0.125 0 -0.359375 0.15625q-0.21875 0.140625 -0.21875 0.359375l0 3.390625q0 0.140625 0.09375 0.25q0.09375 0.109375 0.203125 0.109375l1.578125 0q0.46875 0 0.640625 -0.171875q0.171875 -0.171875 0.296875 -0.625q0.09375 -0.34375 0.28125 -0.34375q0.0625 0 0.125 0.0625q0.078125 0.0625 0.078125 0.1875q0 0.0625 -0.015625 0.296875q0 0.21875 -0.015625 0.46875q-0.015625 0.234375 -0.015625 0.359375q0 0.15625 0 0.421875q0.015625 0.265625 0.015625 0.515625q0.015625 0.234375 0.015625 0.296875q0 0.109375 -0.03125 0.1875q-0.015625 0.078125 -0.109375 0.078125q-0.234375 0 -0.359375 -0.515625q-0.109375 -0.359375 -0.265625 -0.53125q-0.15625 -0.1875 -0.484375 -0.1875l-1.484375 0q-0.265625 0 -0.40625 0.078125q-0.140625 0.078125 -0.140625 0.34375l0 3.078125q0 0.59375 0.25 0.828125q0.265625 0.234375 0.8125 0.234375l1.1875 0q0.515625 0 0.859375 -0.046875q0.34375 -0.0625 0.59375 -0.21875q0.25 -0.1875 0.453125 -0.46875q0.203125 -0.28125 0.453125 -0.765625q0.046875 -0.09375 0.109375 -0.15625q0.078125 -0.0625 0.15625 -0.046875q0.078125 0.015625 0.125 0.078125q0.046875 0.046875 0.046875 0.140625q0 0.140625 -0.078125 0.5q-0.078125 0.359375 -0.203125 0.75q-0.125 0.375 -0.21875 0.609375q-0.046875 0.109375 -0.09375 0.1875q-0.03125 0.078125 -0.125 0.078125q-0.765625 0 -1.421875 -0.015625q-0.65625 -0.015625 -1.25 -0.03125q-0.59375 -0.015625 -1.171875 -0.03125q-0.5625 -0.015625 -1.171875 -0.015625q-0.34375 0 -0.609375 0.015625q-0.25 0.03125 -0.53125 0.046875q-0.265625 0.03125 -0.6875 0.03125zm12.858398 4.484375q-0.078125 0 -0.203125 -0.03125q-0.125 -0.015625 -0.125 -0.109375q0 -0.140625 0.125 -0.203125q0.125 -0.046875 0.25 -0.09375q0.234375 -0.078125 0.453125 -0.1875q0.234375 -0.09375 0.234375 -0.421875l0 -3.71875q0 -0.28125 -0.03125 -0.375q-0.015625 -0.109375 -0.0625 -0.109375q-0.03125 0 -0.078125 0q-0.03125 0 -0.0625 0.03125q-0.140625 0.109375 -0.453125 0.328125q-0.3125 0.21875 -0.734375 0.375q-0.421875 0.171875 -0.84375 0.171875q-0.84375 0 -1.578125 -0.34375q-0.71875 -0.359375 -1.171875 -1.046875q-0.453125 -0.6875 -0.453125 -1.671875q0 -1.140625 0.484375 -1.984375q0.5 -0.859375 1.390625 -1.328125q0.90625 -0.46875 2.078125 -0.46875q0.546875 0 0.984375 0.09375q0.453125 0.078125 0.734375 0.171875q0.296875 0.09375 0.328125 0.09375q0.171875 0 0.25 -0.109375q0.078125 -0.125 0.15625 -0.296875q0.015625 -0.015625 0.046875 -0.03125q0.046875 -0.03125 0.078125 -0.03125q0.078125 0 0.15625 0.046875q0.09375 0.046875 0.09375 0.109375q0 0.15625 -0.09375 0.671875q-0.09375 0.5 -0.09375 1.1875l0 8.234375q0 0.328125 0.296875 0.421875q0.296875 0.109375 0.53125 0.1875q0.125 0.046875 0.25 0.09375q0.125 0.0625 0.125 0.203125q0 0.09375 -0.125 0.109375q-0.109375 0.03125 -0.203125 0.03125q-0.484375 0 -0.75 -0.046875q-0.25 -0.03125 -0.6875 -0.03125q-0.28125 0 -0.453125 0.015625q-0.15625 0.015625 -0.34375 0.03125q-0.1875 0.03125 -0.5 0.03125zm-0.9375 -5.1875q0.515625 0 1.0 -0.21875q0.484375 -0.21875 0.6875 -0.4375q0 -0.21875 0 -0.671875q0 -0.453125 0 -0.953125q0 -0.515625 -0.015625 -0.921875q0 -0.421875 0 -0.578125q-0.015625 -0.71875 -0.578125 -1.203125q-0.546875 -0.5 -1.34375 -0.5q-0.578125 0 -1.09375 0.328125q-0.5 0.328125 -0.828125 0.953125q-0.3125 0.625 -0.3125 1.546875q0 0.796875 0.25 1.328125q0.25 0.515625 0.625 0.8125q0.390625 0.28125 0.8125 0.40625q0.4375 0.109375 0.796875 0.109375zm9.85199 0.921875q-0.109375 0 -0.109375 -0.125q0 -0.15625 0.03125 -0.46875q0.046875 -0.3125 0.046875 -0.515625q0 -0.03125 0 -0.046875q0 -0.03125 0 -0.046875q-0.625 0.609375 -1.265625 0.875q-0.625 0.25 -1.375 0.25q-0.515625 0 -0.9375 -0.21875q-0.40625 -0.203125 -0.65625 -0.625q-0.234375 -0.4375 -0.234375 -1.0625l0 -3.234375q0 -0.359375 -0.15625 -0.5625q-0.15625 -0.21875 -0.53125 -0.359375q-0.078125 -0.03125 -0.140625 -0.078125q-0.0625 -0.046875 -0.0625 -0.171875q0 -0.140625 0.0625 -0.1875q0.078125 -0.0625 0.171875 -0.078125q0.546875 -0.03125 0.84375 -0.078125q0.296875 -0.0625 0.734375 -0.171875q0.0625 -0.015625 0.078125 -0.015625q0.03125 0 0.0625 0q0.171875 0 0.15625 0.21875q-0.046875 0.375 -0.078125 0.625q-0.015625 0.25 -0.015625 0.609375l0 3.125q0 0.390625 0.1875 0.71875q0.1875 0.3125 0.5 0.53125q0.3125 0.203125 0.65625 0.203125q0.40625 0 0.71875 -0.046875q0.3125 -0.046875 0.625 -0.265625q0.171875 -0.140625 0.4375 -0.421875q0.28125 -0.28125 0.28125 -0.78125l0 -2.9375q0 -0.328125 -0.203125 -0.5q-0.203125 -0.171875 -0.46875 -0.234375q-0.25 -0.0625 -0.40625 -0.0625q-0.140625 0 -0.234375 -0.046875q-0.09375 -0.0625 -0.09375 -0.21875q0 -0.140625 0.09375 -0.1875q0.109375 -0.0625 0.234375 -0.0625q0.5 -0.015625 0.828125 -0.03125q0.328125 -0.03125 0.59375 -0.078125q0.265625 -0.0625 0.546875 -0.140625q0.03125 -0.015625 0.078125 -0.015625q0.046875 -0.015625 0.078125 -0.015625q0.21875 0 0.21875 0.171875q0 0.015625 -0.015625 0.0625q0 0.03125 -0.015625 0.09375q-0.015625 0.046875 -0.046875 0.265625q-0.015625 0.21875 -0.046875 0.46875q-0.015625 0.234375 -0.015625 0.359375l0 3.703125q0 0.421875 0.078125 0.609375q0.09375 0.1875 0.203125 0.1875q0.125 0 0.375 -0.015625q0.25 -0.03125 0.359375 -0.03125q0.078125 0 0.15625 0.03125q0.078125 0.03125 0.078125 0.171875q0 0.125 -0.0625 0.171875q-0.0625 0.03125 -0.15625 0.046875q-0.625 0.09375 -1.078125 0.25q-0.4375 0.15625 -0.796875 0.296875q-0.046875 0.015625 -0.140625 0.046875q-0.09375 0.046875 -0.171875 0.046875zm3.2758179 -0.25q-0.140625 0 -0.234375 -0.046875q-0.078125 -0.03125 -0.078125 -0.125q0 -0.125 0.109375 -0.171875q0.125 -0.0625 0.25 -0.09375q0.34375 -0.078125 0.515625 -0.1875q0.171875 -0.125 0.171875 -0.40625l0 -3.484375q0 -0.421875 -0.15625 -0.75q-0.140625 -0.34375 -0.5625 -0.40625q-0.078125 -0.015625 -0.125 -0.0625q-0.03125 -0.0625 -0.03125 -0.15625q0 -0.171875 0.140625 -0.1875q0.640625 -0.140625 1.046875 -0.390625q0.421875 -0.25 0.640625 -0.40625q0.140625 -0.109375 0.21875 -0.109375q0.09375 0 0.09375 0.078125q0 0.125 -0.046875 0.5q-0.03125 0.375 -0.0625 0.828125q-0.03125 0.453125 -0.03125 0.828125l0 3.71875q0 0.265625 0.171875 0.390625q0.1875 0.125 0.515625 0.203125q0.125 0.03125 0.234375 0.09375q0.125 0.046875 0.125 0.171875q0 0.171875 -0.3125 0.171875q-0.3125 0 -0.5 -0.03125q-0.171875 -0.015625 -0.34375 -0.03125q-0.171875 -0.015625 -0.453125 -0.015625q-0.265625 0 -0.453125 0.015625q-0.171875 0.015625 -0.34375 0.03125q-0.171875 0.03125 -0.5 0.03125zm0.890625 -8.296875q-0.328125 0 -0.5625 -0.234375q-0.234375 -0.234375 -0.234375 -0.578125q0 -0.34375 0.234375 -0.578125q0.234375 -0.234375 0.5625 -0.234375q0.359375 0 0.59375 0.234375q0.234375 0.234375 0.234375 0.578125q0 0.34375 -0.234375 0.578125q-0.234375 0.234375 -0.59375 0.234375zm5.357483 8.46875q-0.796875 0 -1.234375 -0.46875q-0.4375 -0.484375 -0.4375 -1.4375l0 -3.703125q0 -0.125 -0.09375 -0.171875q-0.09375 -0.0625 -0.421875 -0.0625l-0.09375 0q-0.078125 0 -0.140625 -0.109375q-0.046875 -0.109375 -0.046875 -0.21875q0 -0.03125 0.046875 -0.09375q0.046875 -0.0625 0.0625 -0.078125q0.3125 -0.234375 0.578125 -0.453125q0.265625 -0.21875 0.484375 -0.4375q0.21875 -0.21875 0.359375 -0.390625q0.078125 -0.078125 0.125 -0.125q0.0625 -0.0625 0.15625 -0.0625q0.078125 0 0.140625 0.03125q0.078125 0.03125 0.0625 0.140625l-0.078125 0.71875q-0.015625 0.171875 0.078125 0.234375q0.09375 0.0625 0.296875 0.0625l1.828125 0q0.0625 0 0.109375 0.109375q0.046875 0.109375 0.046875 0.25q0 0.140625 -0.046875 0.28125q-0.046875 0.140625 -0.109375 0.140625l-1.578125 0q-0.40625 0 -0.53125 0.0625q-0.109375 0.0625 -0.109375 0.375l0 3.15625q0 0.640625 0.265625 1.015625q0.28125 0.359375 0.78125 0.359375q0.46875 0 0.71875 -0.0625q0.265625 -0.078125 0.46875 -0.21875q0.03125 -0.03125 0.0625 -0.03125q0.0625 0 0.078125 0.078125q0.03125 0.0625 0.03125 0.140625q0 0.078125 -0.265625 0.328125q-0.25 0.234375 -0.6875 0.4375q-0.421875 0.203125 -0.90625 0.203125zm3.0240479 4.34375q-0.3125 0 -0.578125 -0.15625q-0.25 -0.15625 -0.25 -0.5q0 -0.296875 0.140625 -0.515625q0.140625 -0.203125 0.390625 -0.203125q0.171875 0 0.34375 0.046875q0.171875 0.046875 0.296875 0.046875q0.09375 0 0.15625 -0.046875q0.078125 -0.03125 0.15625 -0.125q0.171875 -0.296875 0.390625 -0.734375q0.234375 -0.421875 0.484375 -0.96875q0.25 -0.546875 0.484375 -1.15625q0.046875 -0.140625 0.046875 -0.359375q0 -0.125 -0.015625 -0.25q-0.015625 -0.125 -0.046875 -0.21875l-1.859375 -4.6875q-0.109375 -0.28125 -0.296875 -0.5q-0.1875 -0.21875 -0.421875 -0.28125q-0.140625 -0.046875 -0.265625 -0.109375q-0.109375 -0.0625 -0.109375 -0.1875q0 -0.09375 0.109375 -0.109375q0.125 -0.03125 0.21875 -0.03125q0.3125 0 0.46875 0.015625q0.15625 0.015625 0.28125 0.046875q0.140625 0.015625 0.40625 0.015625q0.296875 0 0.4375 -0.015625q0.140625 -0.03125 0.296875 -0.046875q0.171875 -0.015625 0.484375 -0.015625q0.09375 0 0.203125 0.046875q0.125 0.03125 0.125 0.140625q0 0.109375 -0.171875 0.21875q-0.171875 0.09375 -0.296875 0.125q-0.15625 0.046875 -0.25 0.171875q-0.078125 0.125 -0.078125 0.34375q0 0.09375 0.046875 0.234375q0.0625 0.125 0.09375 0.21875l1.296875 3.1875q0.03125 0.09375 0.09375 0.09375q0.046875 0 0.078125 -0.09375l1.109375 -2.921875q0.046875 -0.109375 0.078125 -0.296875q0.046875 -0.1875 0.046875 -0.296875q0 -0.296875 -0.09375 -0.421875q-0.09375 -0.125 -0.234375 -0.1875q-0.125 -0.0625 -0.296875 -0.15625q-0.15625 -0.109375 -0.15625 -0.21875q0 -0.109375 0.109375 -0.140625q0.125 -0.046875 0.203125 -0.046875q0.21875 0 0.453125 0.046875q0.234375 0.03125 0.6875 0.03125q0.296875 0 0.4375 -0.015625q0.140625 -0.03125 0.234375 -0.046875q0.09375 -0.015625 0.265625 -0.015625q0.078125 0 0.203125 0.03125q0.125 0.015625 0.125 0.109375q0 0.125 -0.125 0.1875q-0.125 0.0625 -0.25 0.109375q-0.234375 0.0625 -0.515625 0.375q-0.265625 0.3125 -0.421875 0.703125l-2.1875 5.171875q-0.015625 0.046875 -0.171875 0.40625q-0.140625 0.375 -0.375 0.921875q-0.21875 0.546875 -0.484375 1.171875q-0.265625 0.625 -0.5 1.203125q-0.140625 0.3125 -0.421875 0.484375q-0.265625 0.171875 -0.609375 0.171875z" fill-rule="nonzero"/><path fill="#000000" fill-opacity="0.0" d="m324.35434 129.2441l-154.36221 195.52757" fill-rule="evenodd"/><path stroke="#000000" stroke-width="1.0" stroke-linejoin="round" stroke-linecap="butt" d="m324.35434 129.2441l-150.64436 190.81825" fill-rule="evenodd"/><path fill="#000000" stroke="#000000" stroke-width="1.0" stroke-linecap="butt" d="m172.41354 319.03885l-1.515564 4.585388l4.1084137 -2.5384216z" fill-rule="evenodd"/><path fill="#ffffff" d="m158.17323 214.35957l107.086624 0l0 51.2126l-107.086624 0z" fill-rule="evenodd"/><path stroke="#b7b7b7" stroke-width="1.0" stroke-linejoin="round" stroke-linecap="butt" d="m158.17323 214.35957l107.086624 0l0 51.2126l-107.086624 0z" fill-rule="evenodd"/><path fill="#000000" d="m192.09898 245.904q-0.21875 0 -0.34375 -0.046875q-0.125 -0.03125 -0.125 -0.125q0 -0.1875 0.53125 -0.296875q0.609375 -0.109375 0.890625 -0.359375q0.28125 -0.265625 0.28125 -0.828125l0 -7.203125q0 -0.578125 -0.234375 -0.8125q-0.21875 -0.25 -0.828125 -0.359375q-0.28125 -0.046875 -0.40625 -0.125q-0.125 -0.078125 -0.125 -0.1875q0 -0.109375 0.125 -0.140625q0.125 -0.046875 0.34375 -0.046875q0.609375 0 1.03125 0.015625q0.421875 0.015625 0.828125 0.03125q0.40625 0 0.96875 0q0.53125 0 1.109375 0q0.59375 -0.015625 1.078125 -0.015625q0.546875 -0.015625 0.921875 -0.015625q0.375 -0.015625 0.4375 -0.015625q0.078125 0 0.171875 0.03125q0.109375 0.03125 0.125 0.125q0.078125 0.4375 0.15625 0.890625q0.078125 0.4375 0.078125 0.75q0 0.140625 -0.078125 0.1875q-0.0625 0.046875 -0.140625 0.046875q-0.078125 0 -0.109375 -0.03125q-0.03125 -0.046875 -0.0625 -0.125q-0.09375 -0.265625 -0.171875 -0.515625q-0.078125 -0.25 -0.1875 -0.359375q-0.21875 -0.265625 -0.5 -0.34375q-0.265625 -0.09375 -0.578125 -0.09375l-2.09375 0q-0.125 0 -0.359375 0.15625q-0.21875 0.140625 -0.21875 0.359375l0 3.390625q0 0.140625 0.09375 0.25q0.09375 0.109375 0.203125 0.109375l1.578125 0q0.46875 0 0.640625 -0.171875q0.171875 -0.171875 0.296875 -0.625q0.09375 -0.34375 0.28125 -0.34375q0.0625 0 0.125 0.0625q0.078125 0.0625 0.078125 0.1875q0 0.0625 -0.015625 0.296875q0 0.21875 -0.015625 0.46875q-0.015625 0.234375 -0.015625 0.359375q0 0.15625 0 0.421875q0.015625 0.265625 0.015625 0.515625q0.015625 0.234375 0.015625 0.296875q0 0.109375 -0.03125 0.1875q-0.015625 0.078125 -0.109375 0.078125q-0.234375 0 -0.359375 -0.515625q-0.109375 -0.359375 -0.265625 -0.53125q-0.15625 -0.1875 -0.484375 -0.1875l-1.484375 0q-0.265625 0 -0.40625 0.078125q-0.140625 0.078125 -0.140625 0.34375l0 3.078125q0 0.59375 0.25 0.828125q0.265625 0.234375 0.8125 0.234375l1.1875 0q0.515625 0 0.859375 -0.046875q0.34375 -0.0625 0.59375 -0.21875q0.25 -0.1875 0.453125 -0.46875q0.203125 -0.28125 0.453125 -0.765625q0.046875 -0.09375 0.109375 -0.15625q0.078125 -0.0625 0.15625 -0.046875q0.078125 0.015625 0.125 0.078125q0.046875 0.046875 0.046875 0.140625q0 0.140625 -0.078125 0.5q-0.078125 0.359375 -0.203125 0.75q-0.125 0.375 -0.21875 0.609375q-0.046875 0.109375 -0.09375 0.1875q-0.03125 0.078125 -0.125 0.078125q-0.765625 0 -1.421875 -0.015625q-0.65625 -0.015625 -1.25 -0.03125q-0.59375 -0.015625 -1.171875 -0.03125q-0.5625 -0.015625 -1.171875 -0.015625q-0.34375 0 -0.609375 0.015625q-0.25 0.03125 -0.53125 0.046875q-0.265625 0.03125 -0.6875 0.03125zm12.858398 4.484375q-0.078125 0 -0.203125 -0.03125q-0.125 -0.015625 -0.125 -0.109375q0 -0.140625 0.125 -0.203125q0.125 -0.046875 0.25 -0.09375q0.234375 -0.078125 0.453125 -0.1875q0.234375 -0.09375 0.234375 -0.421875l0 -3.71875q0 -0.28125 -0.03125 -0.375q-0.015625 -0.109375 -0.0625 -0.109375q-0.03125 0 -0.078125 0q-0.03125 0 -0.0625 0.03125q-0.140625 0.109375 -0.453125 0.328125q-0.3125 0.21875 -0.734375 0.375q-0.421875 0.171875 -0.84375 0.171875q-0.84375 0 -1.578125 -0.34375q-0.71875 -0.359375 -1.171875 -1.046875q-0.453125 -0.6875 -0.453125 -1.671875q0 -1.140625 0.484375 -1.984375q0.5 -0.859375 1.390625 -1.328125q0.90625 -0.46875 2.078125 -0.46875q0.546875 0 0.984375 0.09375q0.453125 0.078125 0.734375 0.171875q0.296875 0.09375 0.328125 0.09375q0.171875 0 0.25 -0.109375q0.078125 -0.125 0.15625 -0.296875q0.015625 -0.015625 0.046875 -0.03125q0.046875 -0.03125 0.078125 -0.03125q0.078125 0 0.15625 0.046875q0.09375 0.046875 0.09375 0.109375q0 0.15625 -0.09375 0.671875q-0.09375 0.5 -0.09375 1.1875l0 8.234375q0 0.328125 0.296875 0.421875q0.296875 0.109375 0.53125 0.1875q0.125 0.046875 0.25 0.09375q0.125 0.0625 0.125 0.203125q0 0.09375 -0.125 0.109375q-0.109375 0.03125 -0.203125 0.03125q-0.484375 0 -0.75 -0.046875q-0.25 -0.03125 -0.6875 -0.03125q-0.28125 0 -0.453125 0.015625q-0.15625 0.015625 -0.34375 0.03125q-0.1875 0.03125 -0.5 0.03125zm-0.9375 -5.1875q0.515625 0 1.0 -0.21875q0.484375 -0.21875 0.6875 -0.4375q0 -0.21875 0 -0.671875q0 -0.453125 0 -0.953125q0 -0.515625 -0.015625 -0.921875q0 -0.421875 0 -0.578125q-0.015625 -0.71875 -0.578125 -1.203125q-0.546875 -0.5 -1.34375 -0.5q-0.578125 0 -1.09375 0.328125q-0.5 0.328125 -0.828125 0.953125q-0.3125 0.625 -0.3125 1.546875q0 0.796875 0.25 1.328125q0.25 0.515625 0.625 0.8125q0.390625 0.28125 0.8125 0.40625q0.4375 0.109375 0.796875 0.109375zm9.85202 0.921875q-0.109375 0 -0.109375 -0.125q0 -0.15625 0.03125 -0.46875q0.046875 -0.3125 0.046875 -0.515625q0 -0.03125 0 -0.046875q0 -0.03125 0 -0.046875q-0.625 0.609375 -1.265625 0.875q-0.625 0.25 -1.375 0.25q-0.515625 0 -0.9375 -0.21875q-0.40625 -0.203125 -0.65625 -0.625q-0.234375 -0.4375 -0.234375 -1.0625l0 -3.234375q0 -0.359375 -0.15625 -0.5625q-0.15625 -0.21875 -0.53125 -0.359375q-0.078125 -0.03125 -0.140625 -0.078125q-0.0625 -0.046875 -0.0625 -0.171875q0 -0.140625 0.0625 -0.1875q0.078125 -0.0625 0.171875 -0.078125q0.546875 -0.03125 0.84375 -0.078125q0.296875 -0.0625 0.734375 -0.171875q0.0625 -0.015625 0.078125 -0.015625q0.03125 0 0.0625 0q0.171875 0 0.15625 0.21875q-0.046875 0.375 -0.078125 0.625q-0.015625 0.25 -0.015625 0.609375l0 3.125q0 0.390625 0.1875 0.71875q0.1875 0.3125 0.5 0.53125q0.3125 0.203125 0.65625 0.203125q0.40625 0 0.71875 -0.046875q0.3125 -0.046875 0.625 -0.265625q0.171875 -0.140625 0.4375 -0.421875q0.28125 -0.28125 0.28125 -0.78125l0 -2.9375q0 -0.328125 -0.203125 -0.5q-0.203125 -0.171875 -0.46875 -0.234375q-0.25 -0.0625 -0.40625 -0.0625q-0.140625 0 -0.234375 -0.046875q-0.09375 -0.0625 -0.09375 -0.21875q0 -0.140625 0.09375 -0.1875q0.109375 -0.0625 0.234375 -0.0625q0.5 -0.015625 0.828125 -0.03125q0.328125 -0.03125 0.59375 -0.078125q0.265625 -0.0625 0.546875 -0.140625q0.03125 -0.015625 0.078125 -0.015625q0.046875 -0.015625 0.078125 -0.015625q0.21875 0 0.21875 0.171875q0 0.015625 -0.015625 0.0625q0 0.03125 -0.015625 0.09375q-0.015625 0.046875 -0.046875 0.265625q-0.015625 0.21875 -0.046875 0.46875q-0.015625 0.234375 -0.015625 0.359375l0 3.703125q0 0.421875 0.078125 0.609375q0.09375 0.1875 0.203125 0.1875q0.125 0 0.375 -0.015625q0.25 -0.03125 0.359375 -0.03125q0.078125 0 0.15625 0.03125q0.078125 0.03125 0.078125 0.171875q0 0.125 -0.0625 0.171875q-0.0625 0.03125 -0.15625 0.046875q-0.625 0.09375 -1.078125 0.25q-0.4375 0.15625 -0.796875 0.296875q-0.046875 0.015625 -0.140625 0.046875q-0.09375 0.046875 -0.171875 0.046875zm3.275772 -0.25q-0.140625 0 -0.234375 -0.046875q-0.078125 -0.03125 -0.078125 -0.125q0 -0.125 0.109375 -0.171875q0.125 -0.0625 0.25 -0.09375q0.34375 -0.078125 0.515625 -0.1875q0.171875 -0.125 0.171875 -0.40625l0 -3.484375q0 -0.421875 -0.15625 -0.75q-0.140625 -0.34375 -0.5625 -0.40625q-0.078125 -0.015625 -0.125 -0.0625q-0.03125 -0.0625 -0.03125 -0.15625q0 -0.171875 0.140625 -0.1875q0.640625 -0.140625 1.046875 -0.390625q0.421875 -0.25 0.640625 -0.40625q0.140625 -0.109375 0.21875 -0.109375q0.09375 0 0.09375 0.078125q0 0.125 -0.046875 0.5q-0.03125 0.375 -0.0625 0.828125q-0.03125 0.453125 -0.03125 0.828125l0 3.71875q0 0.265625 0.171875 0.390625q0.1875 0.125 0.515625 0.203125q0.125 0.03125 0.234375 0.09375q0.125 0.046875 0.125 0.171875q0 0.171875 -0.3125 0.171875q-0.3125 0 -0.5 -0.03125q-0.171875 -0.015625 -0.34375 -0.03125q-0.171875 -0.015625 -0.453125 -0.015625q-0.265625 0 -0.453125 0.015625q-0.171875 0.015625 -0.34375 0.03125q-0.171875 0.03125 -0.5 0.03125zm0.890625 -8.296875q-0.328125 0 -0.5625 -0.234375q-0.234375 -0.234375 -0.234375 -0.578125q0 -0.34375 0.234375 -0.578125q0.234375 -0.234375 0.5625 -0.234375q0.359375 0 0.59375 0.234375q0.234375 0.234375 0.234375 0.578125q0 0.34375 -0.234375 0.578125q-0.234375 0.234375 -0.59375 0.234375zm5.3575134 8.46875q-0.796875 0 -1.234375 -0.46875q-0.4375 -0.484375 -0.4375 -1.4375l0 -3.703125q0 -0.125 -0.09375 -0.171875q-0.09375 -0.0625 -0.421875 -0.0625l-0.09375 0q-0.078125 0 -0.140625 -0.109375q-0.046875 -0.109375 -0.046875 -0.21875q0 -0.03125 0.046875 -0.09375q0.046875 -0.0625 0.0625 -0.078125q0.3125 -0.234375 0.578125 -0.453125q0.265625 -0.21875 0.484375 -0.4375q0.21875 -0.21875 0.359375 -0.390625q0.078125 -0.078125 0.125 -0.125q0.0625 -0.0625 0.15625 -0.0625q0.078125 0 0.140625 0.03125q0.078125 0.03125 0.0625 0.140625l-0.078125 0.71875q-0.015625 0.171875 0.078125 0.234375q0.09375 0.0625 0.296875 0.0625l1.828125 0q0.0625 0 0.109375 0.109375q0.046875 0.109375 0.046875 0.25q0 0.140625 -0.046875 0.28125q-0.046875 0.140625 -0.109375 0.140625l-1.578125 0q-0.40625 0 -0.53125 0.0625q-0.109375 0.0625 -0.109375 0.375l0 3.15625q0 0.640625 0.265625 1.015625q0.28125 0.359375 0.78125 0.359375q0.46875 0 0.71875 -0.0625q0.265625 -0.078125 0.46875 -0.21875q0.03125 -0.03125 0.0625 -0.03125q0.0625 0 0.078125 0.078125q0.03125 0.0625 0.03125 0.140625q0 0.078125 -0.265625 0.328125q-0.25 0.234375 -0.6875 0.4375q-0.421875 0.203125 -0.90625 0.203125zm3.0240173 4.34375q-0.3125 0 -0.578125 -0.15625q-0.25 -0.15625 -0.25 -0.5q0 -0.296875 0.140625 -0.515625q0.140625 -0.203125 0.390625 -0.203125q0.171875 0 0.34375 0.046875q0.171875 0.046875 0.296875 0.046875q0.09375 0 0.15625 -0.046875q0.078125 -0.03125 0.15625 -0.125q0.171875 -0.296875 0.390625 -0.734375q0.234375 -0.421875 0.484375 -0.96875q0.25 -0.546875 0.484375 -1.15625q0.046875 -0.140625 0.046875 -0.359375q0 -0.125 -0.015625 -0.25q-0.015625 -0.125 -0.046875 -0.21875l-1.859375 -4.6875q-0.109375 -0.28125 -0.296875 -0.5q-0.1875 -0.21875 -0.421875 -0.28125q-0.140625 -0.046875 -0.265625 -0.109375q-0.109375 -0.0625 -0.109375 -0.1875q0 -0.09375 0.109375 -0.109375q0.125 -0.03125 0.21875 -0.03125q0.3125 0 0.46875 0.015625q0.15625 0.015625 0.28125 0.046875q0.140625 0.015625 0.40625 0.015625q0.296875 0 0.4375 -0.015625q0.140625 -0.03125 0.296875 -0.046875q0.171875 -0.015625 0.484375 -0.015625q0.09375 0 0.203125 0.046875q0.125 0.03125 0.125 0.140625q0 0.109375 -0.171875 0.21875q-0.171875 0.09375 -0.296875 0.125q-0.15625 0.046875 -0.25 0.171875q-0.078125 0.125 -0.078125 0.34375q0 0.09375 0.046875 0.234375q0.0625 0.125 0.09375 0.21875l1.296875 3.1875q0.03125 0.09375 0.09375 0.09375q0.046875 0 0.078125 -0.09375l1.109375 -2.921875q0.046875 -0.109375 0.078125 -0.296875q0.046875 -0.1875 0.046875 -0.296875q0 -0.296875 -0.09375 -0.421875q-0.09375 -0.125 -0.234375 -0.1875q-0.125 -0.0625 -0.296875 -0.15625q-0.15625 -0.109375 -0.15625 -0.21875q0 -0.109375 0.109375 -0.140625q0.125 -0.046875 0.203125 -0.046875q0.21875 0 0.453125 0.046875q0.234375 0.03125 0.6875 0.03125q0.296875 0 0.4375 -0.015625q0.140625 -0.03125 0.234375 -0.046875q0.09375 -0.015625 0.265625 -0.015625q0.078125 0 0.203125 0.03125q0.125 0.015625 0.125 0.109375q0 0.125 -0.125 0.1875q-0.125 0.0625 -0.25 0.109375q-0.234375 0.0625 -0.515625 0.375q-0.265625 0.3125 -0.421875 0.703125l-2.1875 5.171875q-0.015625 0.046875 -0.171875 0.40625q-0.140625 0.375 -0.375 0.921875q-0.21875 0.546875 -0.484375 1.171875q-0.265625 0.625 -0.5 1.203125q-0.140625 0.3125 -0.421875 0.484375q-0.265625 0.171875 -0.609375 0.171875z" fill-rule="nonzero"/></g></svg>